<?xml version="1.0" encoding="UTF-8" standalone="no"?>
<!-- Created with Inkscape (http://www.inkscape.org/) -->

<svg
   width="125mm"
   height="125mm"
   viewBox="0 0 125 125"
   version="1.1"
   id="svg420"
   inkscape:version="1.1.2 (0a00cf5, 2022-02-04)"
   sodipodi:docname="bee_logo.svg"
   xmlns:inkscape="http://www.inkscape.org/namespaces/inkscape"
   xmlns:sodipodi="http://sodipodi.sourceforge.net/DTD/sodipodi-0.dtd"
   xmlns="http://www.w3.org/2000/svg"
   xmlns:svg="http://www.w3.org/2000/svg">
  <sodipodi:namedview
     id="namedview422"
     pagecolor="#ffffff"
     bordercolor="#666666"
     borderopacity="1.0"
     inkscape:pageshadow="2"
     inkscape:pageopacity="0.0"
     inkscape:pagecheckerboard="0"
     inkscape:document-units="mm"
     showgrid="false"
     inkscape:zoom="1.0469407"
     inkscape:cx="167.63128"
     inkscape:cy="267.44591"
     inkscape:window-width="1920"
     inkscape:window-height="920"
     inkscape:window-x="0"
     inkscape:window-y="0"
     inkscape:window-maximized="1"
     inkscape:current-layer="layer1" />
  <defs
     id="defs417">
    <clipPath
       id="clip5">
      <path
         d="m 171,92.355469 h 27 V 118 h -27 z m 0,0"
         id="path136" />
    </clipPath>
  </defs>
  <g
     inkscape:label="Layer 1"
     inkscape:groupmode="layer"
     id="layer1">
    <g
       clip-path="url(#clip5)"
       clip-rule="nonzero"
       id="g162"
       transform="matrix(4.8402372,0,0,5.13443,-829.21598,-477.39561)">
      <path
         style="fill:#000000;fill-opacity:1;fill-rule:nonzero;stroke:none"
         d="m 177.57812,106.01563 c 0.25391,-0.66407 0.61719,-1.22266 1.0625,-1.6836 0.15235,0.1836 0.31641,0.34375 0.52344,0.45313 0.0547,0.0195 0.12891,0.0195 0.15625,-0.043 0.16406,-0.32813 0.1836,-0.69141 0.125,-1.07813 0.17578,-0.11718 0.35156,-0.23828 0.54297,-0.33203 0.0508,0.26563 0.0977,0.52344 0.19531,0.79688 0.0859,0.24218 0.42578,0.18359 0.39844,-0.0859 -0.0391,-0.30469 -0.0391,-0.61719 -0.0312,-0.9375 0.88281,-0.29688 1.85547,-0.37109 2.84375,-0.18359 -0.80859,1.08593 -1.16016,3.18359 -1.26172,3.92578 -0.1875,1.38281 -0.46094,3.60156 0.0742,5.1914 -2.75,-1.0625 -6.03516,-2.32422 -4.62891,-6.02343 z m 7.85157,-2.76954 c -0.19922,0.19922 -0.3711,0.41797 -0.46485,0.69141 -0.29297,0.80078 -0.30078,1.73828 -0.30859,2.58594 -0.004,0.14844 0.0469,0.27344 0.11719,0.38672 -0.9336,1.69922 -1.25391,3.9414 -1.26563,5.66015 -0.0742,-0.0352 -0.15234,-0.0703 -0.23437,-0.10547 -0.0703,-1.59375 -0.21485,-3.14453 -0.0977,-4.7539 0.0742,-1.09375 0.21094,-2.20313 0.51953,-3.26172 0.17578,-0.57031 0.45313,-0.97656 0.73438,-1.41016 0.33593,0.0625 0.66797,0.14063 1,0.20703 z m 0.94922,0.66797 c 0.0547,-0.13672 0.0977,-0.28125 0.11718,-0.42578 0.54297,0.12891 1.09766,0.26953 1.63282,0.44922 -0.27344,0.34766 -0.42188,0.75391 -0.51172,1.19141 -0.19922,-0.29297 -0.54688,-0.46485 -0.94532,-0.25 -0.14062,0.0742 -0.26171,0.1875 -0.39062,0.26953 0.004,-0.10547 -0.004,-0.21485 -0.004,-0.33203 0.008,-0.28907 0.008,-0.62891 0.10157,-0.90235 z m 4.41796,1.16016 c -0.50781,0.40625 -0.78515,1.16797 -0.95312,1.95312 -0.25781,-0.51171 -0.59375,-0.95703 -1.02734,-1.28125 0.004,-0.0234 0.0195,-0.0312 0.0195,-0.043 0.0508,-0.49219 0.10547,-0.98829 0.0937,-1.48438 0.64453,0.24219 1.27734,0.51172 1.86718,0.85547 z m 2.15625,-8.625001 c 1.23829,-0.574219 3.64063,-0.05859 2.87891,1.816406 -0.29687,0.707031 -0.67969,1.316406 -1.15625,1.902345 -1.25391,1.53516 -2.82812,2.23437 -4.49219,3.19922 -0.043,0.0195 -0.0547,0.0547 -0.0898,0.0664 -0.58203,-0.2539 -1.19141,-0.48046 -1.80469,-0.66796 1.38281,-2.01172 2.31641,-5.226568 4.66406,-6.316411 z m -1.10156,12.500001 c -0.10547,1.07812 -0.0703,2.17969 0.0703,3.25391 -0.1875,0.0664 -0.37109,0.1289 -0.5625,0.19921 0.0234,-0.76562 -0.15625,-1.71875 -0.17187,-1.96875 -0.0117,-1.0039 -0.008,-2.04296 0.14453,-3.03515 0.082,-0.5586 0.28516,-1.16797 0.36328,-1.7461 0.0352,0.0195 0.0664,0.0352 0.0937,0.0547 0.34766,0.25391 0.71094,0.55078 1.0625,0.88281 -0.65625,0.4961 -0.92187,1.62891 -1,2.35938 z m 1.4375,2.65234 -0.043,0.0156 c -0.0625,-0.69922 -0.12109,-1.40235 -0.10937,-2.09766 0.0195,-0.8125 0.18359,-1.52344 0.35156,-2.27734 1.26172,1.42187 1.97266,3.17969 -0.19922,4.35937 z m -4.84375,0.63672 c 0.0937,0.11719 -1.44531,3.40235 -1.86719,3.32422 -0.0547,0.043 -0.10937,0.0977 -0.17187,0.12891 -0.71484,0.30859 -1.03516,-0.17578 -1.18359,-0.89844 -0.35157,-0.36719 -0.3086,-2.37109 0.0117,-2.73438 0.0352,-0.28125 0.0742,-0.51562 0.0937,-0.64453 0.1836,-0.92187 0.36719,-1.87109 0.73047,-2.74218 0.38672,-0.89844 0.97266,-1.59375 1.45313,-2.41797 0.0898,0.0625 0.1875,0.125 0.28125,0.1875 0.13672,0.0781 0.26172,0.0937 0.375,0.0781 0.69531,1.47656 0.92969,3.07031 0.53906,4.6836 -0.0742,0.29687 -0.16016,0.65625 -0.26172,1.03515 z m -5.54687,1.30078 c 0.17187,0.27344 0.42187,0.46875 0.69922,0.63672 0.20312,1.6211 0.84765,3.44141 2.71875,3.10938 1.30078,-0.22266 2.375,-1.35938 3.09765,-2.85157 0.0273,0 0.0547,-0.004 0.0742,-0.004 2.3125,-0.42578 5.03906,-1.21485 6.39453,-3.29297 1.3711,-2.12109 -1.12109,-4.64453 -2.63672,-5.82813 -0.5625,-0.43359 -1.19531,-0.84375 -1.85156,-1.21093 2.25781,-1.09766 4.42188,-2.625 5.41016,-5.027348 0.83203,-2.023437 0.12109,-3.660156 -2.07032,-4.179687 -3.8164,-0.886719 -6.60156,4.667969 -6.99218,7.714845 -1.09375,-0.28125 -2.20703,-0.4375 -3.27735,-0.42188 -0.11718,0.008 -0.21484,0.0508 -0.28125,0.10157 -0.0508,0.0156 -0.0937,0.0586 -0.14453,0.0781 -0.0195,-0.008 -0.0117,-0.0273 -0.0312,-0.0391 -0.94531,-0.76563 -2.11719,-0.89063 -3.26953,-0.62109 0.22656,-1.03125 0.625,-2.031255 1.08984,-2.863286 0.27344,-0.484375 0.72657,-1.066406 1.11329,-1.667969 0.15625,0.05859 0.32031,0.101563 0.5,0.128906 1.51171,0.195313 2.76562,-1.316406 2.17578,-2.742187 -0.0937,-0.230469 -0.25391,-0.433594 -0.42578,-0.605469 -0.0117,-0.02734 -0.0156,-0.05469 -0.0312,-0.08594 -0.75391,-1.417969 -2.57032,-0.992188 -3.2461,0.257812 -0.38672,0.71875 -0.33984,1.535156 0.0195,2.164062 -0.12109,0.21875 -0.24218,0.4375 -0.34375,0.640626 -0.4414,0.8125 -0.83984,1.648437 -1.16406,2.503906 -0.33984,0.898439 -0.53125,1.722659 -0.55859,2.562499 -0.30078,0.1211 -0.57813,0.28125 -0.86328,0.44532 -0.34375,-0.67188 -0.83594,-1.29297 -1.23047,-1.71094 -0.53516,-0.55859 -1.25391,-1.140629 -2.04297,-1.515629 0.0742,-0.375 0.0625,-0.757813 -0.1211,-1.125 -0.0977,-0.191406 -0.24218,-0.359375 -0.41015,-0.492188 -0.76563,-1.066406 -2.48047,-0.667968 -3.21485,0.179688 -0.66406,0.777344 -1.03906,2.085937 -0.11718,2.847659 0.86328,0.73047 2.39062,0.69531 3.22265,-0.125 0.29297,0.0742 0.55469,0.16016 0.73438,0.28906 0.90625,0.62891 1.58594,1.4961 2.1289,2.44922 -0.75781,0.6875 -1.33984,1.53516 -1.57031,2.41016 -1.12109,4.1914 2.46094,7.50781 6.48828,7.82422 0.0156,0.0273 0.0156,0.0469 0.0273,0.0664"
         id="path160" />
    </g>
  </g>
</svg>
