<?xml version="1.0" encoding="UTF-8" standalone="no"?>
<!-- Created with Inkscape (http://www.inkscape.org/) -->

<svg
   width="210mm"
   height="297mm"
   viewBox="0 0 210 297"
   version="1.1"
   id="svg493"
   inkscape:version="1.1.2 (0a00cf5339, 2022-02-04, custom)"
   sodipodi:docname="beetail.svg"
   xmlns:inkscape="http://www.inkscape.org/namespaces/inkscape"
   xmlns:sodipodi="http://sodipodi.sourceforge.net/DTD/sodipodi-0.dtd"
   xmlns="http://www.w3.org/2000/svg"
   xmlns:svg="http://www.w3.org/2000/svg">
  <sodipodi:namedview
     id="namedview495"
     pagecolor="#ffffff"
     bordercolor="#666666"
     borderopacity="1.0"
     inkscape:pageshadow="2"
     inkscape:pageopacity="0.0"
     inkscape:pagecheckerboard="0"
     inkscape:document-units="mm"
     showgrid="false"
     inkscape:zoom="0.74029882"
     inkscape:cx="396.46153"
     inkscape:cy="561.93525"
     inkscape:window-width="1920"
     inkscape:window-height="1017"
     inkscape:window-x="-8"
     inkscape:window-y="-8"
     inkscape:window-maximized="1"
     inkscape:current-layer="layer1" />
  <defs
     id="defs490">
    <clipPath
       id="clip6">
      <path
         d="m 199,112 h 46.95703 v 71.10547 H 199 Z m 0,0"
         id="path139" />
    </clipPath>
  </defs>
  <g
     inkscape:label="Layer 1"
     inkscape:groupmode="layer"
     id="layer1">
    <g
       clip-path="url(#clip6)"
       clip-rule="nonzero"
       id="g166"
       transform="matrix(0.35277777,0,0,0.35277777,-15.125093,15.839229)">
      <path
         style="fill:#000000;fill-opacity:1;fill-rule:nonzero;stroke:none"
         d="m 228.72656,159.84766 c -4.15234,-2.40625 1.28125,-6.61329 4.4375,-6.625 0.76953,-0.008 1.52344,0.10156 2.26953,0.30078 -0.38672,4.24609 -1.99218,9.0625 -6.70703,6.32422 z m -14.23437,-27.3125 c -1.03125,1.53906 -3.5,0.0977 -4.21875,-1.22266 -0.9375,-1.73047 3.51172,-2.37891 5.82031,-2.57422 -0.16016,1.38281 -0.83203,2.67188 -1.60156,3.79688 z m -15.20703,-19.66407 c 4.26562,2.64454 8.85937,4.66797 12.72656,7.91797 2.0625,1.72657 3.83594,4 4.09375,6.72266 -0.71094,0.0352 -1.41797,0.0977 -2.125,0.20703 -1.52344,0.23438 -4.58985,1.00781 -4.84766,2.92969 -0.30859,2.33203 2.91797,3.35547 4.60938,3.91406 0.23047,0.0859 0.4414,-0.004 0.59765,-0.18359 1.66407,-2.01563 2.47657,-3.91797 2.62891,-5.69922 0.18359,-0.008 0.32031,-0.0156 0.39453,-0.008 3.96484,0.0312 7.78906,1.44922 10.91797,3.82813 5.04687,3.85547 6.78125,11.34766 7.19922,17.3125 0.0469,0.61719 0.0625,1.36719 0.0391,2.19141 -4.80078,-1.3086 -8.8125,1.54687 -10.17969,6.5 -0.10547,0.37109 0.0117,0.64453 0.28907,0.89843 4.16015,3.69922 8.85156,3.89063 10.66796,-1.98437 0.33204,-1.07031 0.55079,-2.1875 0.69141,-3.33985 3.03516,1.37891 5.49219,4.2461 6.31641,7.3125 0.98437,3.58204 -0.0234,7.60547 -0.92188,11.09766 -0.95312,3.68359 -2.29297,7.14844 -3.95703,10.51563 h 1.88281 c 2.39844,-5.04688 4.08985,-10.42969 4.80078,-15.97266 0.84766,-6.53516 -1.94531,-11.69922 -7.96093,-14.44531 l -0.0312,-0.0156 c 0.28906,-5.59765 -1.40235,-11.66015 -3.94141,-16.25 -3.21484,-5.84765 -9.69141,-8.88672 -16.21484,-8.83984 -0.53125,-7.06641 -11.10938,-12.18359 -17.33594,-15.26953 -0.38281,-0.17969 -0.69531,0.44531 -0.33984,0.66015"
         id="path164" />
    </g>
  </g>
</svg>
