<?xml version="1.0" encoding="UTF-8" standalone="no"?>
<!-- Created with Inkscape (http://www.inkscape.org/) -->

<svg
   width="210mm"
   height="297mm"
   viewBox="0 0 210 297"
   version="1.1"
   id="svg549"
   inkscape:version="1.1.2 (0a00cf5339, 2022-02-04, custom)"
   sodipodi:docname="tree_logo.svg"
   xmlns:inkscape="http://www.inkscape.org/namespaces/inkscape"
   xmlns:sodipodi="http://sodipodi.sourceforge.net/DTD/sodipodi-0.dtd"
   xmlns="http://www.w3.org/2000/svg"
   xmlns:svg="http://www.w3.org/2000/svg">
  <sodipodi:namedview
     id="namedview551"
     pagecolor="#ffffff"
     bordercolor="#666666"
     borderopacity="1.0"
     inkscape:pageshadow="2"
     inkscape:pageopacity="0.0"
     inkscape:pagecheckerboard="0"
     inkscape:document-units="mm"
     showgrid="false"
     inkscape:zoom="0.74029882"
     inkscape:cx="396.46153"
     inkscape:cy="561.93525"
     inkscape:window-width="1920"
     inkscape:window-height="1017"
     inkscape:window-x="-8"
     inkscape:window-y="-8"
     inkscape:window-maximized="1"
     inkscape:current-layer="layer1" />
  <defs
     id="defs546">
    <clipPath
       id="clip2">
      <path
         d="M 0,0 H 191 V 80 H 0 Z m 0,0"
         id="path127" />
    </clipPath>
    <clipPath
       id="clip3">
      <path
         d="M 8.378906,-59.117188 201.49219,-38.144531 187.32031,92.339844 -5.792969,71.367188 Z m 0,0"
         id="path130" />
    </clipPath>
    <clipPath
       id="clip4">
      <path
         d="M -5.796875,71.402344 187.31641,92.375 201.48828,-38.109375 8.375,-59.082031 Z m 0,0"
         id="path133" />
    </clipPath>
  </defs>
  <g
     inkscape:label="Layer 1"
     inkscape:groupmode="layer"
     id="layer1">
    <g
       clip-path="url(#clip2)"
       clip-rule="nonzero"
       id="g158"
       transform="matrix(0.35277777,0,0,0.35277777,39.629271,68.199229)">
      <g
         clip-path="url(#clip3)"
         clip-rule="nonzero"
         id="g156">
        <g
           clip-path="url(#clip4)"
           clip-rule="nonzero"
           id="g154">
          <path
             style="fill:#d9b378;fill-opacity:1;fill-rule:nonzero;stroke:none"
             d="M 23.421875,74.574219 C 23.789062,74.101562 24.113281,73.597656 24.46875,73.117188 24.42578,72.5625 24.164062,72.054688 23.976562,71.539062 23.058594,69.363281 22,67.25 20.949219,65.132812 19.570312,62.386719 18.148438,59.660156 16.722656,56.9375 17.945312,57 19.125,57.363281 20.289062,57.71875 c -0.0078,0.01563 -0.02344,0.05078 -0.02734,0.06641 -0.335938,0.214844 -0.59375,0.5625 -0.644531,0.960938 -0.113282,0.730468 0.25,1.433594 0.699218,1.980468 0.519532,0.667969 1.207032,1.191407 1.953125,1.585938 0.222657,-0.964844 0.324219,-1.980469 0.140625,-2.960938 -0.06641,-0.371093 -0.246094,-0.707031 -0.417968,-1.035156 1.304687,0.46875 2.589843,1.003906 3.867187,1.550782 0.605469,0.28125 1.234375,0.511718 1.816406,0.832031 -0.08203,0.01172 -0.164062,0.01953 -0.242187,0.03125 -0.523438,0.300781 -0.925782,0.8125 -1.054688,1.40625 -0.175781,0.777343 0.08594,1.582031 0.460938,2.265625 0.800781,1.421875 2.128906,2.460937 3.527344,3.257812 0.175781,-0.804687 0.335937,-1.625 0.34375,-2.453125 0.05078,-0.84375 -0.0039,-1.703125 -0.25,-2.515625 -0.08984,-0.304687 -0.25,-0.585937 -0.375,-0.878906 1.09375,0.488281 2.15625,1.042969 3.199218,1.621094 0.753906,0.425781 1.5,0.867187 2.207032,1.367187 -0.527344,0.199219 -1.015626,0.546875 -1.277344,1.058594 -0.4375,0.828125 -0.300782,1.824219 0.01953,2.667969 0.363281,1.027344 1.035156,1.902344 1.757813,2.703125 0.308593,0.328125 0.644531,0.632812 0.984374,0.925781 0.550782,-1.28125 1.019532,-2.625 1.105469,-4.027344 0.03125,-0.511718 -0.05078,-1.019531 -0.136719,-1.519531 0.78125,0.644531 1.503907,1.355469 2.160157,2.125 0.480469,0.597656 0.953125,1.21875 1.246093,1.929687 0.160157,-0.308593 0.324219,-0.613281 0.472657,-0.921874 0.105469,-0.261719 -0.05859,-0.523438 -0.175781,-0.746094 -0.191407,-0.359375 -0.488282,-0.644532 -0.730469,-0.96875 0.433593,0.04297 0.871093,0.121094 1.308593,0.06641 1.652344,-0.15625 3.164063,-0.96875 4.457032,-1.96875 -1.238282,-0.816406 -2.570313,-1.554688 -4.027344,-1.890625 -0.617188,-0.101563 -1.253906,-0.1875 -1.863281,-0.0078 -0.683594,0.183594 -1.253907,0.710938 -1.53125,1.351563 -0.132813,0.257813 -0.226563,0.539063 -0.191407,0.832031 -0.292968,-0.167968 -0.550781,-0.390625 -0.824218,-0.589844 -1.101563,-0.808593 -2.234375,-1.574218 -3.371094,-2.328124 -0.425781,-0.3125 -0.898438,-0.558594 -1.265625,-0.9375 0.859375,0.132812 1.71875,-0.04297 2.558594,-0.21875 0.964843,-0.207032 1.90625,-0.5 2.851562,-0.78125 0.265625,0.40625 0.625,0.75 1.070313,0.953124 0.683594,0.304688 1.449218,0.371094 2.191406,0.316407 1.4375,-0.125 2.816406,-0.660157 4.03125,-1.421875 -0.738281,-0.617188 -1.507812,-1.199219 -2.34375,-1.671875 -0.964844,-0.53125 -2.039062,-1.007813 -3.164062,-0.902344 -0.878907,0.07031 -1.644532,0.703125 -1.96875,1.503906 -0.472657,0.128907 -0.957032,0.195313 -1.4375,0.273438 0.800781,-1.433594 0.894531,-3.140625 0.667968,-4.738281 -1.21875,0.535156 -2.40625,1.191406 -3.378906,2.109374 -0.589844,0.574219 -1.121094,1.304688 -1.148438,2.152344 -0.03516,0.34375 0.0625,0.679688 0.179688,0.996094 -0.820312,0.07813 -1.636719,0.199219 -2.457031,0.277344 -0.496094,-0.46875 -1.109375,-0.785156 -1.703125,-1.113282 C 28.765625,59.875 27.957031,59.480469 27.132812,59.125 26.878906,59.007812 26.625,58.894531 26.367188,58.789062 c 0.0078,-0.01953 0.01562,-0.05859 0.01953,-0.07812 1.117187,-0.242188 2.125,-0.847657 3,-1.570313 1.117187,-0.949219 2.046875,-2.113281 2.777343,-3.382813 -1.222656,-0.3125 -2.476562,-0.464843 -3.730468,-0.5625 -1.238282,-0.05078 -2.515625,-0.0039 -3.691406,0.425782 -0.816407,0.296875 -1.582032,0.84375 -1.980469,1.632812 -0.296875,0.574219 -0.398438,1.222656 -0.410157,1.863282 -0.867187,-0.300782 -1.710937,-0.671876 -2.578124,-0.972657 0.0078,-0.04297 0.01953,-0.08594 0.02734,-0.128906 C 20.371094,55.875 20.878906,55.5625 21.324219,55.1875 21.84375,54.789062 22.265625,54.28125 22.640625,53.75 21.949219,53.542969 21.246094,53.378906 20.527344,53.300781 19.742188,53.253906 18.882812,53.246094 18.203125,53.695312 17.691406,54.03125 17.464844,54.65625 17.449219,55.246094 16.566406,54.976562 15.710938,54.628906 14.835938,54.328125 13.59375,52.222656 12.289062,50.15625 11,48.078125 9.695312,45.996094 8.382812,43.921875 7.054688,41.859375 6.210938,40.519531 5.496094,39.101562 4.933594,37.625 4.433594,36.207031 4.0625,34.726562 4.019531,33.21875 4.015625,32.605469 3.996094,31.976562 4.183594,31.386719 c 1.335937,0.347656 2.640625,0.820312 3.875,1.445312 0.152344,0.07813 0.308594,0.152344 0.46875,0.214844 0.015625,0.02734 0.039062,0.08203 0.050781,0.109375 -0.65625,0.324219 -1.167969,0.917969 -1.390625,1.613281 -0.347656,1.019531 -0.191406,2.132813 0.132812,3.136719 0.410157,1.246094 1.132813,2.355469 1.945313,3.371094 0.648437,-0.886719 1.171875,-1.863282 1.597656,-2.875 0.449219,-1.128906 0.773438,-2.390625 0.429688,-3.59375 0.589843,0.429687 1.167969,0.878906 1.714843,1.359375 0.08594,0.0625 -0.0078,0.15625 -0.05859,0.199219 -0.582031,0.515624 -0.875,1.304687 -0.839844,2.074218 0.04297,0.90625 0.414063,1.761719 0.902344,2.515625 1.023437,1.53125 2.492187,2.730469 4.101562,3.601563 0.152344,-0.75 0.300781,-1.503906 0.390625,-2.269532 0.101563,-1.351562 0.144532,-2.753906 -0.308594,-4.054687 -0.257812,-0.773437 -0.75,-1.492187 -1.476562,-1.890625 -0.511719,-0.296875 -1.101562,-0.390625 -1.683594,-0.425781 -1.308594,-1.316407 -2.828125,-2.398438 -4.378906,-3.40625 0.308594,-0.1875 0.632812,-0.363281 0.890625,-0.625 0.800781,-0.765625 1.222656,-1.828125 1.488281,-2.882813 -0.792968,0.01953 -1.582031,0.160156 -2.339844,0.386719 C 9.074219,29.59375 8.4375,29.871094 8.011719,30.386719 7.808594,30.621094 7.707031,30.921875 7.640625,31.222656 6.5,30.554688 5.363281,29.886719 4.199219,29.265625 c 0.179687,-0.800781 0.382812,-1.59375 0.484375,-2.410156 0.175781,-0.789063 0.21875,-1.601563 0.324218,-2.402344 0.085938,-0.824219 0.175782,-1.648437 0.246094,-2.476563 0.00781,-0.3125 0.011719,-0.625 0.050782,-0.9375 0.050781,-0.382812 0.019531,-0.773437 0.054687,-1.160156 1.183594,0.171875 2.300781,0.621094 3.398437,1.066406 0.8125,0.328126 1.59375,0.726563 2.386719,1.105469 -0.234375,0.210938 -0.488281,0.417969 -0.628906,0.710938 -0.429687,0.820312 -0.332031,1.800781 -0.09375,2.667969 0.316406,1.050781 0.851563,2.039062 1.570313,2.871093 0.785156,-1.085937 1.472656,-2.28125 1.757812,-3.601562 0.08594,-0.367188 0.05469,-0.742188 0.05078,-1.113281 0.5625,0.296874 1.054688,0.703124 1.597657,1.035156 -0.01563,0.03516 -0.03125,0.07422 -0.04297,0.109375 -0.773438,0.265625 -1.335938,0.953125 -1.601563,1.707031 -0.339844,0.964844 -0.253906,2.023438 -0.03906,3.007812 0.40625,1.722657 1.304687,3.292969 2.394531,4.671876 0.871094,-1.195313 1.640625,-2.472657 2.167969,-3.851563 0.292968,-0.753906 0.484375,-1.550781 0.535156,-2.359375 0.195312,0.230469 0.347656,0.496094 0.503906,0.757812 0.601563,0.984376 1.109375,2.023438 1.609375,3.0625 0.05469,0.117188 0.09766,0.238282 0.132813,0.363282 -0.640625,0.05078 -1.203125,0.476562 -1.5,1.03125 -0.464844,0.851562 -0.546875,1.855468 -0.453125,2.800781 0.05078,0.5625 0.179687,1.109375 0.339843,1.648437 0.796876,-0.523437 1.574219,-1.105468 2.214844,-1.816406 0.246094,-0.265625 0.433594,-0.574218 0.644532,-0.863281 0.28125,0.753906 0.621093,1.488281 0.859374,2.253906 -0.183593,0.101563 -0.382812,0.175781 -0.558593,0.296875 -0.3125,0.207032 -0.53125,0.523438 -0.710938,0.84375 -0.367187,0.828125 -0.328125,1.765625 -0.125,2.628906 0.191407,0.804688 0.53125,1.570313 0.945313,2.285157 -0.425782,1.050781 -0.742188,2.152343 -0.847656,3.285156 -0.148438,1.171875 -0.105469,2.363281 0.02734,3.535156 0.242188,-0.05469 0.46875,-0.148437 0.695313,-0.25 1.078125,-0.441406 2.128906,-0.960937 3.128906,-1.558593 1.105469,-0.667969 2.148438,-1.472657 2.941406,-2.503907 0.03516,0.207031 0.07031,0.414063 0.105469,0.621094 -0.492187,0.246094 -0.664063,0.835937 -0.757813,1.335937 -0.07031,0.851563 0.375,1.648438 0.949219,2.242188 0.886719,0.90625 2.046875,1.496094 3.238281,1.894531 0.445313,0.152344 0.90625,0.238281 1.355469,0.355469 -0.144531,-1.3125 -0.40625,-2.625 -0.953125,-3.835938 C 32.273438,47.640625 31.855469,46.972656 31.21875,46.546875 30.746094,46.222656 30.164062,46.09375 29.59375,46.136719 29.5,45.59375 29.320312,45.070312 29.226562,44.527344 c -0.03906,-0.316406 0.03516,-0.636719 -0.02734,-0.949219 -0.03906,-0.289063 -0.152344,-0.5625 -0.269531,-0.824219 -0.101563,-0.230468 -0.121094,-0.480468 -0.15625,-0.726562 0.613281,0.695312 1.355468,1.273437 2.179687,1.695312 1.121094,0.589844 2.351563,0.949219 3.597656,1.164063 1.054688,0.128906 2.113281,0.269531 3.179688,0.222656 -0.601563,-1.804687 -1.371094,-3.566406 -2.433594,-5.148437 -0.605469,-0.90625 -1.328125,-1.75 -2.226563,-2.378907 -0.753906,-0.519531 -1.664062,-0.863281 -2.589843,-0.796875 -0.640625,0.02344 -1.257813,0.234375 -1.828125,0.507813 0.125,-1.128907 0.453125,-2.230469 0.859375,-3.289063 0.351562,-0.894531 0.78125,-1.761718 1.320312,-2.5625 0.125,-0.183594 0.257813,-0.367187 0.445313,-0.496094 0.222656,0.945313 0.839844,1.726563 1.460937,2.453126 1.238281,1.335937 2.664063,2.503906 4.25,3.40625 2.226563,1.292968 4.675781,2.125 7.117188,2.914062 0.5625,0.203125 1.15625,0.355469 1.65625,0.6875 0.640625,0.5 1.210937,1.078125 1.804687,1.628906 0.347656,0.34375 0.71875,0.664063 1.03125,1.039063 -0.304687,0.117187 -0.613281,0.238281 -0.867187,0.445312 -0.484375,0.402344 -0.792969,0.980469 -0.953125,1.578125 -0.203125,0.90625 -0.1875,1.851563 0.0078,2.753906 0.222656,1.15625 0.707032,2.238282 1.273438,3.265626 0.867187,-0.878907 1.675781,-1.828126 2.304687,-2.894532 0.449219,-0.773437 0.792969,-1.617187 0.875,-2.511718 0.621094,0.5625 1.1875,1.1875 1.769531,1.789062 0.398438,0.476562 0.832032,0.949219 1.042969,1.546875 0.109375,0.277344 0.117188,0.578125 0.152344,0.875 -0.761719,-0.4375 -1.695313,-0.59375 -2.546875,-0.355469 -0.949219,0.253906 -1.757812,0.871094 -2.40625,1.59375 -1.519531,1.742188 -2.300781,4.011719 -2.617188,6.273438 1.878907,-0.253906 3.757813,-0.675782 5.480469,-1.484375 0.730469,-0.335938 1.40625,-0.792969 1.988281,-1.355469 0.07813,-0.08203 0.175782,-0.148438 0.277344,-0.203125 0.05469,1.3125 0.582032,2.535156 1.113282,3.714844 -0.773438,0.0039 -1.535157,0.273437 -2.1875,0.683593 -0.960938,0.625 -1.589844,1.667969 -1.867188,2.761719 -0.429688,1.648438 -0.214844,3.390625 0.242188,5.003907 0.371093,1.292968 0.929687,2.519531 1.585937,3.6875 0.988281,-0.933594 1.859375,-1.992188 2.648437,-3.101563 0.992188,-1.445313 1.878907,-3.054687 2.03125,-4.832031 0.335938,0.421875 0.613282,0.882812 0.9375,1.308594 0.09375,0.121093 0.203126,0.238281 0.269532,0.378906 -0.320313,0.65625 -0.308594,1.445312 0,2.105468 0.492187,1.027344 1.363281,1.828126 2.316406,2.429688 0.753906,0.476562 1.574219,0.847656 2.425781,1.117188 0.05078,-0.84375 -0.01563,-1.6875 -0.140625,-2.519532 C 63.644531,66.394531 63.457031,65.664062 63.140625,64.992188 62.839844,64.34375 62.367188,63.738281 61.699219,63.445312 61.296875,63.253906 60.847656,63.25 60.410156,63.21875 c -0.144531,-0.167969 -0.289062,-0.332031 -0.421875,-0.511719 0.753907,0.05078 1.519531,-0.0625 2.207031,-0.367187 0.332032,-0.128906 0.65625,-0.277344 0.960938,-0.457032 -0.824219,-0.714843 -1.75,-1.402343 -2.847656,-1.613281 -0.582032,-0.132812 -1.246094,0.03125 -1.625,0.515625 -0.06641,0.128906 -0.203125,0.03516 -0.25,-0.05469 -0.414063,-0.59375 -0.820313,-1.195313 -1.210938,-1.804688 -0.195312,-0.335937 -0.453125,-0.648437 -0.550781,-1.035156 1.59375,0.929687 3.507813,1.136719 5.320313,0.9375 -0.527344,-1.152344 -1.132813,-2.285156 -1.96875,-3.246094 C 59.609375,55.097656 59.136719,54.65625 58.570312,54.359375 58.125,54.140625 57.625,53.988281 57.125,54.054688 c -0.367188,0.02344 -0.707031,0.175781 -1.039062,0.320312 0.07812,-1.140625 0.320312,-2.273438 0.769531,-3.328125 0.878906,0.953125 1.9375,1.710937 2.964843,2.496094 0.492188,0.40625 1.035157,0.75 1.542969,1.136719 0.511719,0.328124 0.972657,0.742187 1.515625,1.015624 -0.02344,0.3125 -0.101562,0.625 -0.04687,0.941407 0.09375,0.644531 0.480469,1.21875 0.972657,1.636719 0.988281,0.863281 2.277343,1.292968 3.554687,1.519531 0.585937,0.06641 1.171875,0.160156 1.761719,0.136719 -0.347656,-1.027344 -0.726563,-2.050782 -1.289063,-2.984376 -0.371093,-0.621093 -0.8125,-1.21875 -1.382812,-1.675781 -0.441407,-0.351562 -0.984375,-0.597656 -1.550781,-0.617187 -0.542969,-0.02344 -1.078126,0.140625 -1.535157,0.425781 C 62.878911,54.8125 62.441411,54.476562 61.992193,54.164062 61.67188,53.917969 61.316411,53.707031 61.04688,53.40625 c 0.554687,-0.02344 1.117187,-0.01953 1.664063,-0.140625 0.71875,-0.132813 1.40625,-0.378906 2.074218,-0.664063 -0.796875,-0.863281 -1.664062,-1.679687 -2.683594,-2.269531 -0.664062,-0.367187 -1.425781,-0.683593 -2.199218,-0.554687 -0.703125,0.105468 -1.25,0.640625 -1.605469,1.222656 -0.01953,-0.0078 -0.05469,-0.01953 -0.07422,-0.02734 -0.503906,-0.558594 -1.050781,-1.078125 -1.511718,-1.675781 0.890624,0.136719 1.785156,-0.109375 2.574218,-0.503906 0.718746,-0.386723 1.40234,-0.847661 1.96484,-1.445317 -0.53125,-0.316406 -1.113281,-0.519531 -1.683594,-0.753906 -0.734375,-0.269531 -1.507812,-0.445312 -2.292968,-0.453125 -0.527344,0.0078 -1.074219,0.136719 -1.492188,0.46875 -0.257812,0.199219 -0.429688,0.480469 -0.582031,0.761719 C 54.703125,46.761719 54.3125,46.074219 53.875,45.421875 c -0.511719,-0.9375 -1.058594,-1.867187 -1.421875,-2.875 1.230469,0.464844 2.453125,0.957031 3.695313,1.390625 2.957031,1.070312 5.953124,2.039062 8.957031,2.96875 1.390625,0.488281 2.765625,1.027344 4.101562,1.648438 0.269531,0.136718 0.566407,0.222656 0.800781,0.414062 -0.121093,0.01953 -0.238281,0.03516 -0.355468,0.05078 -0.421875,0.242188 -0.820313,0.535157 -1.128906,0.914063 -0.453126,0.535156 -0.710938,1.222656 -0.769532,1.917968 -0.08594,1.242188 0.351563,2.460938 0.96875,3.523438 1.199219,2.039062 3.027344,3.648438 5.023438,4.890625 0.476562,-1.640625 0.78125,-3.332031 0.859375,-5.039063 0.02734,-1.199218 -0.05859,-2.421874 -0.496094,-3.550781 -0.117187,-0.3125 -0.292969,-0.601562 -0.429687,-0.90625 1.179687,0.578125 2.320312,1.242188 3.472656,1.878907 0.191406,0.109374 0.382812,0.21875 0.566406,0.339843 -0.453125,-0.05078 -0.820312,0.25 -1.121094,0.542969 C 76.117188,54 75.828125,54.660156 75.8125,55.332031 c -0.04687,1.003907 0.34375,1.96875 0.855469,2.8125 0.945312,1.515625 2.324219,2.722657 3.832031,3.664063 0.386719,-1.449219 0.699219,-2.9375 0.667969,-4.445313 -0.01563,-0.777343 -0.109375,-1.566406 -0.402344,-2.292969 -0.04687,-0.121093 -0.08203,-0.242187 -0.117187,-0.367187 0.582031,0.3125 1.125,0.679687 1.695312,1.011719 0.523438,0.3125 1.023438,0.671875 1.5625,0.964844 -0.125,0.734374 0.07813,1.515624 0.542969,2.101562 0.609375,0.808594 1.539062,1.308594 2.484375,1.628906 1.746094,0.589844 3.628906,0.597656 5.4375,0.328125 -0.550782,-1.132812 -1.226563,-2.199219 -1.996094,-3.1875 -0.613281,-0.734375 -1.285156,-1.441406 -2.105469,-1.941406 -0.613281,-0.355469 -1.316406,-0.613281 -2.03125,-0.558594 -0.738281,0.05078 -1.4375,0.394531 -1.976562,0.890625 -0.210938,-0.03516 -0.363281,-0.1875 -0.535157,-0.304687 -0.625,-0.425781 -1.261718,-0.832031 -1.902343,-1.230469 -0.230469,-0.148438 -0.480469,-0.273438 -0.667969,-0.472656 0.585938,0 1.175781,0.01172 1.753906,-0.113282 1.222656,-0.230468 2.371094,-0.769531 3.402344,-1.453124 1.40625,-0.945313 2.644531,-2.136719 3.675781,-3.480469 -1.394531,-0.519531 -2.824219,-0.953125 -4.289062,-1.21875 -1.546875,-0.285157 -3.167969,-0.417969 -4.710938,-0.03906 -0.914062,0.21875 -1.773437,0.714844 -2.363281,1.457032 -0.519531,0.6875 -0.789062,1.53125 -0.894531,2.378906 -0.05078,0.203125 0.08203,0.371094 0.152343,0.546875 -0.519531,-0.25 -0.996093,-0.570313 -1.5,-0.847657 C 75.671875,50.753906 74.964844,50.34375 74.25,49.941406 c -0.121094,-0.07031 -0.234375,-0.152344 -0.339844,-0.238281 0.949219,-0.125 1.871094,-0.421875 2.703125,-0.898437 1.371094,-0.777344 2.542969,-1.875 3.5,-3.117188 C 78.65625,45.105469 77.125,44.710938 75.566406,44.53125 74.34375,44.44141 73.027344,44.45312 71.933594,45.085938 71.5,45.320312 71.167969,45.699219 70.910156,46.113281 c -0.335937,0.46875 -0.453125,1.050781 -0.546875,1.613281 -1.558593,-0.839843 -3.089843,-1.722656 -4.644531,-2.570312 0.457031,-0.398438 1.03125,-0.621094 1.574219,-0.875 1.140625,-0.46875 2.304687,-0.871094 3.484375,-1.21875 0.773437,-0.214844 1.546875,-0.421875 2.316406,-0.644531 1.371094,-0.3125 2.734375,-0.652344 4.109375,-0.941407 2.496094,-0.511718 5,-1.003906 7.519531,-1.382812 -0.320312,0.566406 -0.523437,1.214844 -0.460937,1.871094 0.07422,0.917968 0.53125,1.765625 1.132812,2.453125 0.707031,0.863281 1.628907,1.523437 2.59375,2.066406 1.277344,0.710937 2.667969,1.195313 4.089844,1.519531 -0.09766,-1.46875 -0.359375,-2.929687 -0.785156,-4.335937 -0.449219,-1.4375 -1.128907,-2.894531 -2.371094,-3.8125 -0.07031,-0.05859 -0.117187,-0.132813 -0.164063,-0.207031 1.269532,-0.05469 2.546876,-0.101563 3.820313,-0.03125 -0.167969,0.25 -0.355469,0.480468 -0.480469,0.753906 -0.316406,0.664062 -0.304687,1.449218 -0.0625,2.132812 0.304688,0.84375 0.863282,1.578125 1.511719,2.1875 1.265625,1.210938 2.871094,2 4.519531,2.550782 0.05078,-1.355469 -0.05469,-2.722657 -0.351562,-4.050782 -0.179688,-0.765625 -0.433594,-1.523437 -0.835938,-2.207031 -0.195312,-0.34375 -0.484375,-0.621094 -0.707031,-0.945313 0.855469,0.125 1.683594,0.386719 2.496094,0.667969 0.109375,0.417969 0.296875,0.8125 0.582031,1.140625 0.414062,0.496094 1.01172,0.8125 1.63281,0.988282 1.30078,0.363281 2.69141,0.179687 3.97657,-0.183594 1.125,-0.328125 2.1914,-0.839844 3.1875,-1.464844 -1.10938,-0.921875 -2.29688,-1.773438 -3.59766,-2.402344 -0.54688,-0.261718 -1.11719,-0.492187 -1.71094,-0.628906 -0.73047,-0.183594 -1.51953,-0.222656 -2.24219,0.02734 -0.83984,0.304687 -1.488278,1.011718 -1.828121,1.824218 -0.765625,-0.304687 -1.554688,-0.570312 -2.367188,-0.71875 -3.152343,-0.601562 -6.375,-0.503906 -9.570312,-0.546874 -0.328125,-0.01172 -0.660157,-0.03125 -0.980469,-0.109376 0.5,-0.300781 1.007812,-0.601562 1.4375,-1.003906 1.097656,-0.945312 2.089844,-2.003906 3.039062,-3.097656 0.414063,0.332031 0.914063,0.578125 1.453126,0.585938 1.050781,0.03125 2.019531,-0.511719 2.796874,-1.167969 0.953126,-0.835938 1.691407,-1.898438 2.230469,-3.039063 -0.753906,-0.164062 -1.523437,-0.199218 -2.292969,-0.222656 -0.785156,-0.0039 -1.578124,0.05078 -2.34375,0.25 -0.511718,0.140625 -1.023437,0.34375 -1.433593,0.695312 -0.4375,0.355469 -0.730469,0.894532 -0.773438,1.460938 -0.05469,0.332031 -0.01172,0.667969 -0.01563,1.003906 -0.429687,0.320313 -0.796875,0.71875 -1.253906,1.003906 0.148438,-1.046874 -0.265625,-2.082031 -0.835938,-2.945312 -0.539062,-0.78125 -1.191406,-1.492188 -1.957031,-2.0625 -0.335937,0.78125 -0.566406,1.605469 -0.746093,2.433594 -0.08594,0.613281 -0.183594,1.234375 -0.109376,1.851562 0.05469,0.597656 0.25,1.203125 0.664063,1.652344 0.285156,0.28125 0.640625,0.476562 1.011719,0.621094 -0.0078,0.01563 -0.02734,0.04297 -0.03516,0.05859 -1.140626,0.863281 -2.289063,1.714843 -3.445313,2.554687 -0.4375,-0.02344 -0.878906,-0.01563 -1.316406,-0.0039 0.238281,-0.371094 0.492187,-0.738281 0.648437,-1.152344 0.5625,-1.382813 0.550782,-2.925781 0.296875,-4.378906 -0.199219,-1.128907 -0.558593,-2.234375 -1.03125,-3.277344 -0.921875,0.726563 -1.753906,1.558594 -2.542969,2.425781 -0.433593,0.484375 -0.804687,1.023438 -1.164062,1.566406 -0.40625,0.660157 -0.773438,1.363282 -0.933594,2.128907 -0.08984,0.550781 -0.160156,1.121093 -0.01172,1.671875 0.128906,0.609375 0.523437,1.109375 0.878906,1.601562 -2.585938,0.511719 -5.144532,1.136719 -7.695313,1.789063 -2.734375,0.703125 -5.457031,1.441406 -8.167969,2.226562 -0.203124,0.07422 -0.394531,-0.06641 -0.578124,-0.132812 C 57.312489,42.00781 53.089833,40.308592 48.847645,38.660154 47.515614,38.13281 46.167958,37.63281 44.835927,37.10156 c -1.625,-0.652343 -3.195313,-1.449218 -4.675782,-2.382812 -1.359375,-0.878906 -2.644531,-1.882812 -3.738281,-3.074219 -0.628906,-0.671875 -1.1875,-1.414062 -1.628906,-2.21875 -0.06641,-0.121093 -0.117188,-0.253906 -0.128907,-0.390625 1.796876,-0.6875 3.6875,-1.152344 5.605469,-1.332031 -0.304687,0.589844 -0.566406,1.230469 -0.53125,1.90625 0.01172,0.945313 0.449219,1.828125 1.035157,2.546875 0.964843,1.136719 2.269531,1.929688 3.632812,2.507812 1.542969,0.648438 3.195312,1.007813 4.859375,1.171876 C 48.96875,34.445312 48.578125,33.066406 48.035156,31.75 47.523438,30.53125 46.898438,29.34375 46,28.367188 c -0.226562,-0.25 -0.492188,-0.453126 -0.71875,-0.699219 1.089844,0.07422 2.171875,0.246093 3.242188,0.460937 -0.125,0.707032 0.167968,1.445313 0.679687,1.9375 0.445313,0.441406 1.003906,0.757813 1.589844,0.976563 1.421875,0.527343 2.988281,0.585937 4.480469,0.378906 -0.511719,-1.023437 -1.078126,-2.03125 -1.828126,-2.902344 C 53.0625,28.046875 52.617188,27.625 52.113281,27.289062 c -0.480469,-0.300781 -1.03125,-0.535156 -1.605469,-0.503906 -0.617187,0.0078 -1.210937,0.277344 -1.664062,0.679688 -0.519531,-0.09375 -1.015625,-0.289063 -1.535156,-0.378906 0.929687,-0.671876 1.460937,-1.757813 1.722656,-2.851563 0.140625,-0.511719 0.183594,-1.042969 0.234375,-1.570313 -1.160156,0.277344 -2.324219,0.644532 -3.320313,1.3125 C 45.429688,24.3125 44.964844,24.773438 44.75,25.359375 44.59375,25.816406 44.636719,26.3125 44.79297,26.765625 43.394531,26.65625 41.992188,26.632812 40.59375,26.625 40.90625,26.230469 41.246094,25.851562 41.5,25.414062 42.34375,24.003906 42.785156,22.378906 42.925781,20.75 c 0.02734,-0.234375 0.05078,-0.46875 0.07031,-0.703125 -1.214844,0.253906 -2.402344,0.632813 -3.542969,1.113281 -1.136719,0.5 -2.253906,1.121094 -3.097656,2.046875 -0.582031,0.644531 -0.976563,1.496094 -0.929688,2.378907 0.0078,0.410156 0.125,0.804687 0.25,1.195312 -0.867187,0.05469 -1.738281,0.109375 -2.605469,0.195312 -0.175781,-0.746093 -0.578124,-1.410156 -0.929687,-2.082031 -1.410156,-2.546875 -2.972656,-5 -4.546875,-7.449219 -0.179688,-0.277343 -0.375,-0.550781 -0.527344,-0.84375 0.648438,-0.324218 1.335938,-0.554687 2.03125,-0.761718 0.226563,-0.05859 0.449219,-0.152344 0.6875,-0.160156 0.117188,0.527343 0.222656,1.0625 0.402344,1.574218 0.980469,-0.632812 1.917969,-1.332031 2.75,-2.152344 0.179688,-0.222656 0.488281,-0.175781 0.742188,-0.238281 0.757812,-0.117187 1.523437,-0.214843 2.289062,-0.296875 -0.07813,0.675782 0.140625,1.34375 0.480469,1.917969 0.445312,0.757813 1.078125,1.390625 1.78125,1.910156 0.324219,-0.867187 0.566406,-1.777343 0.601562,-2.703125 0.01563,-0.457031 -0.0625,-0.90625 -0.203125,-1.339844 2.402344,-0.121093 4.832032,-0.09766 7.191406,0.40625 -0.0039,0.01953 -0.01562,0.05469 -0.01953,0.07031 -0.582031,0.371094 -0.742187,1.128906 -0.664062,1.773437 0.15625,1.210938 0.917969,2.222657 1.722656,3.089844 0.02344,-0.04297 0.07031,-0.128906 0.08984,-0.171875 0.351562,-0.632812 0.644531,-1.292969 0.832031,-1.992187 0.1875,-0.707032 0.253906,-1.492188 -0.09375,-2.164063 0.792969,0.3125 1.566406,0.671875 2.328125,1.046875 -0.214844,0.171875 -0.480469,0.28125 -0.664063,0.492188 -0.472656,0.503906 -0.632812,1.234375 -0.566406,1.90625 0.09766,1.164062 0.660156,2.234375 1.335938,3.164062 0.722656,-0.960937 1.382812,-2.019531 1.617187,-3.214844 0.105469,-0.527343 0.01563,-1.074218 -0.214843,-1.558593 0.757812,0.363281 1.464843,0.816406 2.210937,1.203125 0.01563,0.02734 0.04687,0.07813 0.0625,0.105468 -0.871094,0.542969 -1.527344,1.445313 -1.679687,2.46875 -0.242188,1.449219 0.28125,2.910157 1.03125,4.136719 0.96875,1.542969 2.292968,2.855469 3.78125,3.898438 0.488281,-1.3125 0.789062,-2.6875 0.992187,-4.070313 0.144531,-1.410156 0.160156,-2.886718 -0.394531,-4.21875 0.773437,0.464844 1.511718,0.984375 2.269531,1.46875 -0.160156,0.601563 -0.121094,1.265625 0.214844,1.804688 0.535156,0.875 1.492187,1.382812 2.441406,1.695312 1.246094,0.410156 2.578125,0.46875 3.882813,0.371094 -0.386719,-0.941406 -0.863282,-1.839844 -1.445313,-2.671875 -0.496094,-0.667969 -1.039063,-1.324219 -1.757813,-1.757813 -0.652343,-0.410156 -1.488281,-0.546874 -2.214843,-0.277343 -0.265625,0.08203 -0.484375,0.261719 -0.738281,0.359375 C 59.949219,21.640625 59.765625,21.46875 59.558594,21.34375 59.011719,20.992188 58.460938,20.648438 57.910156,20.304688 57.429688,20.003906 56.917969,19.75 56.507812,19.355469 56.078125,18.960938 55.523438,18.78125 55.003906,18.542969 52.585938,17.121094 50.167969,15.6875 47.726562,14.296875 c -0.02344,-0.04297 -0.05078,-0.08984 -0.07422,-0.132813 0.425781,-0.02344 0.847656,0.0625 1.269531,0.0625 0.425781,0 0.847656,0.07422 1.273437,0.07422 0.320313,0.0039 0.652344,0.0039 0.953126,0.128907 2.007812,0.726562 3.957031,1.59375 5.90625,2.457031 0.117187,0.460937 0.425781,0.875 0.851562,1.097656 0.511719,0.257813 1.097656,0.328125 1.664062,0.269531 1.09375,-0.09375 2.113282,-0.554687 3.03125,-1.132812 -0.839843,-0.667969 -1.753906,-1.277344 -2.78125,-1.617188 -0.597656,-0.1875 -1.285156,-0.277344 -1.863281,0.01953 -0.398437,0.175781 -0.652343,0.554687 -0.855469,0.921874 -0.78125,-0.316406 -1.558593,-0.640624 -2.332031,-0.972656 -0.261719,-0.117187 -0.546875,-0.199218 -0.785156,-0.371094 1.230469,-0.167968 2.339844,-0.828124 3.230469,-1.664062 1.011718,-0.941406 1.808594,-2.09375 2.425781,-3.324219 0.113281,-0.226562 0.21875,-0.457031 0.324219,-0.691406 -1.605469,-0.207031 -3.246094,-0.265625 -4.855469,-0.03125 -1.070313,0.175781 -2.179687,0.488281 -3.007813,1.226563 -0.457031,0.398437 -0.773437,0.953124 -0.902343,1.546874 -0.117188,0.40625 -0.05469,0.835938 -0.07031,1.253907 -0.464844,-0.08594 -1,-0.01563 -1.390625,-0.332031 -0.789062,-0.542969 -1.414062,-1.292969 -1.941406,-2.082032 -0.347656,-0.53125 -0.65625,-1.09375 -0.851563,-1.695312 -0.113281,-0.363282 -0.207031,-0.769532 -0.02344,-1.125 0.08594,-0.0625 0.171875,-0.132813 0.257813,-0.199219 1.351562,-0.089844 2.6875,-0.316406 4.027343,-0.5 4.835938,-0.714844 9.664063,-1.503906 14.488281,-2.289063 0.335938,-0.00781 0.636719,0.183594 0.953126,0.273438 0.355468,0.101562 0.6875,0.269531 0.996093,0.46875 -0.167969,0.472656 -0.191406,0.996094 0.0078,1.460938 0.34375,0.835937 1.085937,1.433593 1.867187,1.84375 0.53125,0.277343 1.101563,0.46875 1.683594,0.613281 C 71.105469,8.769531 70.910156,7.664062 70.40625,6.6875 70.257812,6.40625 70.074219,6.144531 69.847656,5.925781 70.273438,5.703125 70.722656,5.511719 71.109375,5.21875 71.574219,4.921875 71.964844,4.527344 72.355469,4.140625 71.332031,3.691406 70.269531,3.277344 69.140625,3.226562 c 0.0078,-0.019531 0.02344,-0.0625 0.03125,-0.082031 0.585937,-0.292969 1.148437,-0.628906 1.75,-0.886719 C 71.566406,2.019531 72.253906,1.933594 72.9375,1.863281 74.304688,1.75 75.683594,1.761719 77.050781,1.851562 c 1.660157,0.078126 3.3125,0.285157 4.945313,0.566407 1.53125,0.285156 3.082031,0.597656 4.507812,1.25 0.871094,0.382812 1.472656,1.167969 1.929688,1.976562 0.242187,0.425781 0.453125,0.867188 0.613281,1.332031 -0.425781,-0.230468 -0.90625,-0.40625 -1.402344,-0.339843 -1.03125,0.109375 -1.898437,0.773437 -2.597656,1.496093 -1.308594,1.410157 -2.128906,3.210938 -2.558594,5.070313 1.5,-0.02344 3.007813,-0.1875 4.464844,-0.558594 0.921875,-0.253906 1.863281,-0.585937 2.59375,-1.226562 0.246094,-0.191407 0.417969,-0.457031 0.601563,-0.707031 0.261718,1.285156 0.484374,2.578124 0.671874,3.875 0.01953,0.503906 0.144532,0.996093 0.152344,1.496093 -0.324218,-0.25 -0.605468,-0.566406 -0.976562,-0.75 C 89.585938,15.125 89.125,15.007812 88.667969,15.03125 88.0625,15.011719 87.5,15.253906 86.957031,15.488281 c -1.089843,0.566407 -1.976562,1.453125 -2.726562,2.414063 -1.339844,1.75 -2.226563,3.816406 -2.726563,5.957031 1.402344,-0.03906 2.804688,-0.144531 4.191406,-0.378906 1.292969,-0.207031 2.574219,-0.542969 3.777344,-1.070313 0.324219,-0.164062 0.65625,-0.320312 0.957032,-0.535156 0.08984,-0.0625 0.195312,-0.105469 0.300781,-0.148438 -0.144531,1.1875 -0.417969,2.351563 -0.652344,3.523438 -0.4375,0.09375 -0.871094,0.296875 -1.152344,0.652344 -0.46875,0.554687 -0.59375,1.308594 -0.570312,2.011718 0.0625,1.378907 0.632812,2.679688 1.382812,3.820313 0.738281,-0.84375 1.40625,-1.765625 1.855469,-2.796875 0.292969,-0.710938 0.511719,-1.515625 0.265625,-2.269531 -0.152344,-0.507813 -0.535156,-0.90625 -0.976563,-1.183594 0.03125,-0.292969 0.140626,-0.570313 0.230469,-0.851563 0.597657,-2.121093 1.226563,-4.234374 1.816407,-6.359374 0.414062,0.375 0.785156,0.789062 1.191406,1.171874 0,0.03906 0,0.07813 0.0039,0.117188 -0.527344,0.21875 -0.878906,0.742188 -0.945312,1.300781 -0.160157,1.003907 0.203124,2.007813 0.691406,2.871094 0.222656,0.417969 0.527344,0.78125 0.804687,1.160156 0.703125,-1.015625 1.320313,-2.148437 1.457031,-3.390625 0.414063,0.355469 0.761719,0.78125 1.167969,1.144532 0.707031,0.722656 1.414063,1.445312 2.140625,2.148437 -0.183594,0.710937 -0.07813,1.5 0.324219,2.121094 0.546871,0.855469 1.453121,1.410156 2.386711,1.761719 1.8086,0.667968 3.79688,0.71875 5.6875,0.429687 -0.58984,-1.175781 -1.27343,-2.3125 -2.10156,-3.339844 -0.58203,-0.683593 -1.22265,-1.34375 -2.0039,-1.804687 -0.57422,-0.34375 -1.23829,-0.578125 -1.91407,-0.546875 -0.6914,0.02734 -1.35937,0.304687 -1.886712,0.746093 -0.03125,-0.0078 -0.08984,-0.01953 -0.121094,-0.02734 -0.507812,-0.609375 -1.039062,-1.203125 -1.570312,-1.792969 -0.0078,-0.02734 -0.01953,-0.08203 -0.02734,-0.109375 1.1875,0.113281 2.335938,-0.398437 3.249998,-1.121094 0.19532,-0.167969 0.39844,-0.328125 0.58985,-0.503906 -0.51953,-0.320313 -1.07422,-0.570313 -1.64453,-0.769531 -0.703131,-0.246094 -1.460943,-0.449219 -2.210943,-0.316406 -0.460938,0.04687 -0.898438,0.304687 -1.152344,0.691406 -0.09375,0.128906 -0.175781,0.269531 -0.253906,0.40625 -0.01953,-0.0039 -0.0625,-0.01953 -0.08594,-0.02344 -1.324219,-1.527344 -2.664062,-3.042968 -4.003906,-4.558594 0.03906,-0.546874 -0.05469,-1.089843 -0.167969,-1.621093 0.02734,0.01172 0.08203,0.03516 0.109375,0.04687 1.0625,0.644531 2.34375,0.828125 3.570313,0.808594 1.632812,-0.03125 3.242187,-0.425782 4.75391,-1.042969 -0.72266,-0.890625 -1.523442,-1.714844 -2.402348,-2.445313 -0.796875,-0.683594 -1.667968,-1.292968 -2.632812,-1.71875 -0.800782,-0.34375 -1.699219,-0.554687 -2.566406,-0.359375 -0.648438,0.128907 -1.214844,0.507813 -1.667969,0.972657 -0.03516,0.0039 -0.105469,0.01172 -0.140625,0.01953 -0.0039,-0.03516 -0.0078,-0.105469 -0.01172,-0.136719 -0.648437,-2.152344 -1.355469,-4.285156 -2.089844,-6.410156 2.988281,0.960937 5.972657,1.914062 8.972657,2.828125 1.5,0.4375 2.999997,0.878906 4.449217,1.457031 1.39843,0.542969 2.7539,1.1875 4.07812,1.886719 0.89063,0.476562 1.75781,0.996093 2.63281,1.5 0.48047,0.34375 0.99219,0.648437 1.48438,0.976562 0.35547,0.183594 0.66797,0.4375 0.99609,0.660157 0.85938,0.546874 1.67188,1.15625 2.50782,1.738281 1.38671,0.980469 2.72656,2.027343 4.08593,3.042969 0.26563,0.21875 0.53907,0.429687 0.82813,0.621093 -0.0664,0.324219 -0.0273,0.648438 -0.043,0.972657 -0.0547,0.550781 0.004,1.101562 -0.0469,1.652343 -0.0586,2.949219 -0.11328,5.902344 -0.16406,8.851563 -0.0117,1.9375 -0.082,3.878906 -0.0234,5.816406 -0.14453,0.476562 -0.52343,0.847656 -0.90625,1.144531 -0.0391,-0.433593 -0.21484,-0.859375 -0.52734,-1.167969 -0.55468,-0.558593 -1.31641,-0.84375 -2.06641,-1.007812 -0.76171,-0.164062 -1.54687,-0.171875 -2.3164,-0.08984 0.46875,1.011719 1.02734,2.007813 1.83594,2.785156 0.20312,0.199219 0.44531,0.351563 0.68359,0.5 -0.21875,0.191407 -0.51172,0.246094 -0.76172,0.367188 -0.34766,0.140625 -0.66016,0.351562 -1.01953,0.460938 -0.24219,-0.617188 -0.77734,-1.070313 -1.37109,-1.339844 -1.07032,-0.480469 -2.28907,-0.523438 -3.4375,-0.375 -0.8125,0.09766 -1.60157,0.324218 -2.36719,0.59375 0.71484,0.925781 1.53125,1.78125 2.46875,2.484375 0.46875,0.339843 0.96484,0.660156 1.50781,0.867187 -0.28516,0.308594 -0.61718,0.566406 -0.90625,0.867188 -0.91016,0.882812 -1.74218,1.847656 -2.49608,2.867187 -0.22657,0.3125 -0.45704,0.621094 -0.64454,0.957031 -0.63671,-0.324218 -1.37891,-0.414062 -2.07813,-0.277343 -0.51172,0.148437 -1.01562,0.386719 -1.37891,0.789062 -0.85937,0.929688 -1.21093,2.191407 -1.375,3.414063 -0.13671,1.292968 -0.0547,2.601562 0.1836,3.875 0.24609,1.195312 0.57422,2.382812 1.08594,3.492187 1.01953,-0.714843 1.95703,-1.542969 2.86328,-2.398437 0.84765,-0.84375 1.67187,-1.730469 2.30468,-2.75 0.38672,-0.570313 0.69141,-1.199219 0.87891,-1.863282 0.28125,-0.984374 0.10938,-2.121093 -0.57031,-2.910156 -0.32813,-0.367187 -0.71485,-0.683594 -1.1211,-0.957031 0.28516,-0.484375 0.67188,-0.898437 1.02344,-1.335937 0.22266,-0.214844 0.44531,-0.433594 0.64844,-0.664063 0.0312,-0.01172 0.0977,-0.03125 0.12891,-0.03906 0.0937,1.152344 0.70703,2.1875 1.40234,3.082032 0.32422,-0.484375 0.66406,-0.964844 0.89844,-1.5 0.33984,-0.75 0.6289,-1.585938 0.46875,-2.414063 -0.0625,-0.363281 -0.28125,-0.671875 -0.52735,-0.9375 0.82032,-0.515625 1.64844,-1.023437 2.52344,-1.4375 -0.22266,1.371094 0.0625,2.777344 0.58984,4.046875 0.88282,-0.71875 1.73829,-1.5 2.36329,-2.460937 0.40234,-0.632813 0.73046,-1.375 0.63671,-2.140625 -0.0312,-0.332032 -0.17968,-0.632813 -0.32421,-0.921875 0.60156,-0.195313 1.1875,-0.441407 1.80078,-0.605469 0.17187,1.367188 0.22265,2.742188 0.38672,4.109375 0.082,0.824219 0.1289,1.65625 0.10156,2.484375 -0.53906,-0.261719 -1.14453,-0.40625 -1.74219,-0.339844 -1.21094,0.101563 -2.28125,0.808594 -3.09375,1.671875 -0.30469,0.347657 -0.59375,0.710938 -0.86719,1.082031 -0.59765,0.886719 -1.05078,1.867188 -1.40234,2.875 1.49609,0.04688 3.01172,-0.0078 4.47266,-0.363281 0.79296,-0.183593 1.55859,-0.5 2.24219,-0.945312 -0.24609,0.976562 -0.60157,1.914062 -0.91407,2.867187 -0.53125,-0.332031 -1.09375,-0.644531 -1.71483,-0.773437 -0.83204,-0.171875 -1.71485,-0.121094 -2.51564,0.15625 -1.51561,0.542969 -2.78125,1.625 -3.74218,2.894531 -0.71875,0.890625 -1.26562,1.902344 -1.74218,2.9375 -0.21875,0.523438 -0.46875,1.039062 -0.58985,1.59375 1.51171,0.03906 3.03125,0.0039 4.52735,-0.226562 0.61328,-0.06641 1.21875,-0.195313 1.8164,-0.363282 0.32421,-0.0625 0.6211,-0.21875 0.94921,-0.265625 -0.12108,0.195313 -0.25781,0.386719 -0.38671,0.578125 -0.66797,0.878906 -1.35547,1.742188 -2.11719,2.539063 -0.69141,-0.15625 -1.44921,-0.128907 -2.08204,0.21875 -0.9414,0.5 -1.51171,1.484375 -1.82031,2.476562 -0.22265,0.65625 -0.28515,1.351563 -0.34375,2.039063 -0.0703,1.238281 0.10938,2.480468 0.41016,3.679687 1.0625,-0.546875 2.03906,-1.253906 2.95312,-2.027343 0.75391,-0.679688 1.47657,-1.429688 1.92578,-2.351563 0.34375,-0.6875 0.48438,-1.5 0.25782,-2.246094 -0.13672,-0.484375 -0.41797,-0.914062 -0.73047,-1.300781 0.37109,-0.207031 0.66406,-0.527344 1.01953,-0.757812 -0.26953,1.425781 0.0937,2.886718 0.69141,4.183593 0.99219,2.117188 2.57812,3.90625 4.38671,5.371094 0.63282,-1.433594 1.14844,-2.925781 1.47657,-4.457031 0.28515,-1.378906 0.44531,-2.8125 0.16797,-4.203125 -0.1836,-0.894531 -0.58985,-1.773438 -1.27735,-2.386719 -0.83594,-0.765625 -1.98047,-1.117188 -3.08984,-1.199219 0.23437,-0.289062 0.39453,-0.628906 0.625,-0.921875 0.13281,-0.175781 0.23047,-0.378906 0.34765,-0.566406 0.54297,-0.769531 0.98047,-1.609375 1.38672,-2.457031 0.15625,-0.25 0.25782,-0.53125 0.42578,-0.777344 1.04688,2.078125 2.88282,3.65625 4.89454,4.761719 0.35546,-1.433594 0.55859,-2.910156 0.52734,-4.386719 -0.0312,-1.007813 -0.15625,-2.039063 -0.59375,-2.957031 -0.26172,-0.546875 -0.64063,-1.042969 -1.14063,-1.386719 -0.58593,-0.410156 -1.30859,-0.585937 -2.01562,-0.621094 0.22656,-1.058593 0.27344,-2.144531 0.27734,-3.222656 0.0273,0.01172 0.0742,0.03906 0.10157,0.05469 0.89843,0.882813 2.00781,1.523438 3.16015,2.015626 0.84375,0.367187 1.73047,0.617187 2.625,0.835937 -0.0625,-1.121094 -0.25,-2.234375 -0.52344,-3.324219 -0.28906,-1.085937 -0.66796,-2.167968 -1.30859,-3.101562 -0.5,-0.75 -1.21875,-1.40625 -2.10547,-1.644532 -0.67968,-0.203124 -1.40233,-0.117187 -2.07421,0.05859 -0.004,-1.339844 -0.0898,-2.679687 -0.11719,-4.019531 -0.0977,-2.375 -0.0898,-4.757813 -0.0156,-7.132813 0.0469,-0.597656 0.0391,-1.195312 0.0937,-1.792968 -0.0156,-0.570313 0.0977,-1.136719 0.0898,-1.707032 0.0312,-0.535156 0.0977,-1.066406 0.14454,-1.597656 0.0117,-0.808594 0.13671,-1.609375 0.21484,-2.414062 0.0664,-0.503906 0.082,-1.015625 0.22266,-1.507813 0.043,0.02344 0.0859,0.04687 0.1289,0.06641 0.17578,0.433593 0.49219,0.777343 0.73438,1.167968 0.6289,0.867188 1.37109,1.648438 2.16797,2.363282 0.67187,0.609374 1.21093,1.347656 1.78125,2.050781 0.40625,0.585937 0.79296,1.179687 1.15624,1.792969 0.26954,0.535156 0.58204,1.050781 0.84766,1.585937 0.16016,0.328125 0.37109,0.632813 0.51172,0.96875 0.20312,0.449219 0.43359,0.882813 0.67969,1.308594 0.33203,0.726562 0.76953,1.398437 1.12109,2.113281 0.98828,1.964844 1.73047,4.042969 2.35156,6.152344 0.65625,1.84375 1.44141,3.640625 2.23828,5.429687 -0.75,-0.152343 -1.53125,-0.164062 -2.27343,0.03125 -0.88671,0.253907 -1.71485,0.730469 -2.34765,1.40625 -1.33203,1.367188 -2.04297,3.214844 -2.40625,5.0625 -0.26563,1.40625 -0.33594,2.84375 -0.26953,4.273438 0.98437,-0.296875 1.93359,-0.699219 2.86718,-1.128907 1.39454,-0.628906 2.73438,-1.410156 3.90625,-2.398437 0.85938,-0.742187 1.63672,-1.632813 2.02343,-2.714844 0.125,-0.328125 0.15625,-0.679687 0.22266,-1.019531 0.0273,0.02344 0.0781,0.07422 0.10156,0.101562 0.32422,0.621094 0.67578,1.226563 1.01563,1.84375 -0.90625,0.132813 -1.76563,0.628907 -2.28906,1.382813 -0.66797,0.902344 -0.85547,2.058594 -0.83985,3.15625 0.0508,1.710937 0.61328,3.371094 1.39453,4.878906 0.55078,-0.566406 1.14063,-1.101562 1.63672,-1.71875 1.03516,-1.183593 1.94531,-2.550781 2.28516,-4.109375 0.52734,0.730469 1.0039,1.5 1.52734,2.234375 0.14844,0.195313 0.28906,0.402344 0.40235,0.621094 -0.21875,-0.105469 -0.41407,-0.285156 -0.66797,-0.273437 -0.89844,-0.02734 -1.83203,0.207031 -2.53125,0.785156 -0.78516,0.601562 -1.26953,1.515625 -1.53516,2.453125 -0.35547,1.226562 -0.35937,2.53125 -0.20703,3.792969 0.21484,1.769531 0.80078,3.476562 1.56641,5.085937 1.27343,-1.097656 2.46484,-2.296875 3.47265,-3.644531 0.79297,-1.070313 1.48438,-2.246094 1.80469,-3.546875 0.0859,-0.402344 0.10937,-0.816407 0.14844,-1.230469 0.36328,0.25 0.70703,0.519531 1.09375,0.730469 0.33984,0.171875 0.50781,0.527343 0.77734,0.78125 0.28125,0.269531 0.5,0.597656 0.75781,0.890625 -0.69531,0.242187 -1.3789,0.558594 -1.96093,1.019531 -0.89454,0.722656 -1.38282,1.882813 -1.34375,3.019531 0.0586,1.636719 0.72265,3.175782 1.49218,4.59375 0.69532,1.273438 1.53516,2.464844 2.41016,3.617188 0.53125,0.664062 1.06641,1.320312 1.64844,1.941406 0.38672,-0.519531 0.67187,-1.113281 0.97656,-1.683594 0.83203,-1.636718 1.44922,-3.386718 1.76562,-5.199218 0.25782,-1.511719 0.3125,-3.09375 -0.0977,-4.585938 -0.21094,-0.769531 -0.57813,-1.511719 -1.15625,-2.066406 -0.47266,-0.503906 -1.14453,-0.773438 -1.8125,-0.878906 -0.27344,-0.04297 -0.55078,0.01953 -0.82031,-0.03516 -0.1836,-0.08984 -0.29297,-0.273437 -0.39844,-0.441406 1.96875,0.542969 4.03515,0.730469 6.07031,0.550781 -0.44922,-1.058594 -0.91797,-2.109375 -1.49219,-3.105468 -0.76562,-1.347657 -1.65625,-2.648438 -2.82422,-3.683594 -0.67968,-0.597656 -1.47265,-1.101563 -2.35937,-1.316406 -0.92578,-0.246094 -1.93359,-0.09766 -2.78516,0.320312 -0.47265,0.238281 -0.93359,0.511719 -1.3125,0.886719 -0.78125,-1.253907 -1.59375,-2.492188 -2.34375,-3.765625 -1.58593,-2.648438 -3.11328,-5.335938 -4.46875,-8.109375 -0.62109,-1.3125 -1.27734,-2.632813 -1.58593,-4.0625 0.0156,-0.195313 -0.0195,-0.546875 0.27734,-0.523438 1.22656,0.1875 2.38672,0.667969 3.53516,1.125 0.45703,0.203125 0.91406,0.417969 1.375,0.621094 -0.3125,0.242187 -0.65625,0.449219 -0.89844,0.765625 -0.6875,0.804688 -0.82031,1.941406 -0.6211,2.953125 0.32032,1.667969 1.28516,3.136719 2.40625,4.382813 0.58985,0.65625 1.25,1.25 1.95313,1.792968 0.0156,0.01953 0.043,0.05859 0.0586,0.07813 0.48828,-1.132812 0.83203,-2.324219 1.08594,-3.53125 0.0742,-0.53125 0.20703,-1.054687 0.20313,-1.59375 0.0508,-0.664062 0.0156,-1.328125 -0.10547,-1.980469 0.40625,0.25 0.78125,0.558594 1.21484,0.765626 0.79688,0.398437 1.67578,0.671874 2.57422,0.652343 0.125,0.0039 0.25,0.01563 0.375,0.02344 -0.24609,0.367187 -0.51953,0.714843 -0.6875,1.125 -0.48047,1.015625 -0.38672,2.203125 -0.0273,3.242187 0.57421,1.496094 1.66015,2.734375 2.90234,3.726563 1.32422,1.03125 2.80469,1.871093 4.37891,2.460937 0.13671,-1.6875 0.10546,-3.390625 -0.14454,-5.066406 -0.082,-0.597656 -0.23437,-1.175781 -0.36718,-1.761719 1.89062,0.613281 3.92968,0.527344 5.85156,0.121094 -0.55859,-0.9375 -1.16016,-1.851563 -1.86328,-2.6875 -0.8086,-0.929687 -1.71485,-1.828125 -2.85938,-2.332031 -0.75,-0.332032 -1.6289,-0.417969 -2.39843,-0.105469 -0.39454,0.148437 -0.7539,0.375 -1.07032,0.652344 -0.80859,-0.28125 -1.66797,-0.371094 -2.51953,-0.410157 0.23828,-0.148437 0.51563,-0.195312 0.77344,-0.296874 1.39844,-0.527344 2.64062,-1.390626 3.74609,-2.382813 0.72657,-0.664063 1.40235,-1.378906 1.9961,-2.164063 -1.50782,-0.589843 -3.08203,-1.023437 -4.67968,-1.296874 -0.89063,-0.117188 -1.78516,-0.234376 -2.6836,-0.1875 -0.88282,0.02344 -1.75782,0.21875 -2.57032,0.558593 -0.82812,0.382813 -1.50781,1.074219 -1.88281,1.90625 -0.24219,0.472657 -0.33594,0.996094 -0.4375,1.511719 -1.03516,-0.742188 -2.14844,-1.378906 -3.28125,-1.964844 0,-0.03516 0,-0.105468 -0.004,-0.140625 0.66797,-0.304687 1.26172,-0.753906 1.73047,-1.316406 0.50391,-0.566406 0.9336,-1.203125 1.25,-1.898437 0.082,-0.148438 0.15625,-0.304688 0.23438,-0.460938 -1.47656,-0.152344 -3.01563,-0.183594 -4.44141,0.292969 -0.53125,0.207031 -1.0625,0.492187 -1.39062,0.976562 -0.2461,0.292969 -0.32422,0.671875 -0.41407,1.035157 -1.24218,-0.609376 -2.5039,-1.171876 -3.76953,-1.730469 -0.0117,-0.08984 -0.0156,-0.183594 -0.0234,-0.273438 -0.21094,-1.101562 -0.51954,-2.179687 -0.88672,-3.234375 -0.26563,-0.707031 -0.5,-1.429687 -0.83203,-2.109375 0.004,-0.03125 0.008,-0.09375 0.0117,-0.125 0.54688,0.05078 1.09766,0.04687 1.64454,0.105469 0.625,0.0039 1.24609,0.09766 1.87109,0.08984 0.42187,0.04297 0.84766,0.07813 1.27734,0.07813 0.67969,0.07031 1.35938,0.07031 2.03907,0.132812 0.46484,-0.01563 0.92578,0.06641 1.39062,0.07813 0.51172,0 1.02344,0.08594 1.53516,0.07031 0.4414,0.04297 0.88281,0.07813 1.32812,0.08203 0.65625,0.07422 1.3125,0.05859 1.96875,0.125 1.73438,-0.01953 3.42188,0.519531 4.98047,1.246094 1.15234,0.539062 2.23047,1.21875 3.26953,1.949218 1.08986,0.773438 2.08594,1.667969 3.10156,2.535157 1.83594,1.5625 3.67969,3.117187 5.52736,4.664062 1.41797,1.160157 2.81639,2.347657 4.25,3.488281 0.5,1.84375 0.97264,3.695313 1.45703,5.539063 -0.62109,-0.164063 -1.3125,-0.128906 -1.875,0.199219 -1.03125,0.585937 -1.64844,1.671875 -2.03906,2.757812 -0.42578,1.1875 -0.57033,2.457032 -0.5625,3.710938 0.0156,-0.0078 0.0469,-0.03125 0.0625,-0.04297 1.1875,-0.371094 2.33203,-0.898437 3.375,-1.578125 0.67967,-0.507812 1.40234,-1.042969 1.77342,-1.832031 0.0312,-0.01953 0.0937,-0.05469 0.125,-0.07031 0.21875,0.933594 0.51563,1.84375 0.73047,2.777344 -0.27342,-0.171875 -0.50781,-0.394531 -0.77734,-0.566406 -0.17969,-0.132813 -0.41406,-0.07031 -0.61719,-0.04687 -0.98437,0.132812 -1.94139,0.601562 -2.58203,1.371093 -0.91016,1.046876 -1.27734,2.453126 -1.34766,3.808594 -0.0977,2.421875 0.62111,4.800782 1.64844,6.96875 1.02736,-0.9375 1.98438,-1.949218 2.82813,-3.058594 0.89843,-1.1875 1.6914,-2.492187 2.08203,-3.941406 l 0.0781,0.01172 c 0.0859,0.359375 0.19922,0.710937 0.3086,1.066406 0.0664,0.179688 -0.0195,0.363281 -0.0547,0.535157 -0.41016,1.828124 -0.85157,3.652343 -1.32422,5.464843 -0.0352,0.0078 -0.10547,0.02344 -0.14063,0.02734 -0.6211,0.140625 -1.19532,0.484375 -1.58594,0.988281 -0.38671,0.492188 -0.57031,1.105469 -0.66796,1.71875 -0.1211,1.238282 0.14453,2.488282 0.60546,3.636719 0.42188,1.113281 1.0625,2.128906 1.76172,3.089844 1.16407,-1.679688 2.21093,-3.511719 2.54297,-5.554688 0.0937,-0.789062 0.0469,-1.628906 -0.33985,-2.339843 -0.34765,-0.671876 -0.99219,-1.125 -1.66797,-1.429688 0.4961,-1.242188 1.04297,-2.464844 1.46094,-3.734375 0.32813,0.136719 0.48047,0.480469 0.66016,0.761719 1.07812,1.960937 1.96093,4.03125 3.10937,5.953125 -0.20703,0.382812 -0.40625,0.777343 -0.42969,1.21875 -0.10546,0.644531 0.0937,1.292969 0.41016,1.851562 0.53906,0.894531 1.34375,1.597657 2.23438,2.128907 1.35937,0.796874 2.8789,1.316406 4.4414,1.519531 -0.24219,-1.464844 -0.59375,-2.925781 -1.20703,-4.285157 -0.4375,-0.9375 -0.99609,-1.867187 -1.85937,-2.484374 -0.62891,-0.453126 -1.44141,-0.648438 -2.21094,-0.515626 -0.25391,0.03125 -0.49219,0.132813 -0.7461,0.15625 -0.13671,-0.140624 -0.22656,-0.316406 -0.33203,-0.480468 -0.19922,-0.339844 -0.4375,-0.660156 -0.58203,-1.027344 1.11328,0.546875 2.42969,0.410156 3.55078,-0.02734 0.8086,-0.304687 1.55469,-0.75 2.23828,-1.273437 -1.05859,-0.75 -2.19921,-1.417969 -3.45312,-1.777344 -0.73438,-0.207031 -1.55469,-0.289063 -2.26953,0.03906 -0.47266,0.207031 -0.82031,0.621093 -1.05078,1.070312 -0.0273,-0.0039 -0.0781,-0.01172 -0.10547,-0.01953 -0.64453,-1.382813 -1.26563,-2.78125 -1.73047,-4.234375 0.39453,0.257812 0.77344,0.546875 1.21094,0.738281 1.51172,0.710937 3.23047,0.835937 4.8789,0.675781 1.5,-0.152344 2.96875,-0.550781 4.3711,-1.101562 -0.8086,-1.035156 -1.71875,-1.992188 -2.69141,-2.878906 -0.47266,-0.410157 -0.9375,-0.839844 -1.47266,-1.171876 0.375,-1.648437 0.51563,-3.390624 0.125,-5.054687 1.09375,0.667969 2.13282,1.433594 3.26172,2.054687 -0.0312,0.640626 0.15625,1.289063 0.5586,1.792969 0.65625,0.859375 1.68359,1.339844 2.70703,1.621094 1.60547,0.441406 3.30859,0.382813 4.9375,0.09766 0.16406,-0.03516 0.33203,-0.06641 0.5039,-0.101562 -0.63671,-1.039063 -1.30468,-2.070313 -2.125,-2.976563 -0.66796,-0.734375 -1.40625,-1.433594 -2.29687,-1.890625 -0.58594,-0.300781 -1.24609,-0.511719 -1.91406,-0.4375 -0.71875,0.04687 -1.375,0.414063 -1.92188,0.867188 -0.008,0.03516 -0.0234,0.101562 -0.0312,0.136719 -0.25781,0.02344 -0.45312,-0.15625 -0.65625,-0.28125 -0.23047,-0.144532 -0.46875,-0.277344 -0.66797,-0.464844 1.07032,-0.03516 2.01953,-0.648438 2.74219,-1.394532 0.70703,-0.734374 1.23828,-1.625 1.64063,-2.558593 -1.33985,-0.144531 -2.72266,-0.167969 -4.03516,0.171875 -0.71875,0.195312 -1.45313,0.546875 -1.86328,1.195312 -0.28125,0.421875 -0.33203,0.9375 -0.33594,1.429688 -2.27734,-1.484375 -4.50391,-3.042969 -6.64453,-4.714844 -1.02344,-0.808594 -2.03125,-1.640625 -2.98047,-2.539062 -2.5625,-2.5 -5.10937,-5.023438 -7.73437,-7.460938 -0.004,-0.02344 -0.0156,-0.07422 -0.0195,-0.101562 1.89454,0.15625 3.78516,0.414062 5.64844,0.789062 -0.375,0.542969 -0.66406,1.160156 -0.6914,1.828125 -0.0664,1.101563 0.45703,2.144531 1.15625,2.964844 0.84375,0.976562 1.93359,1.707031 3.08984,2.261719 0.75391,0.355468 1.53125,0.65625 2.33594,0.871093 -0.0352,-1.242187 -0.19141,-2.480469 -0.48047,-3.6875 -0.19531,-0.785156 -0.45313,-1.558593 -0.83594,-2.273437 -0.17578,-0.34375 -0.41406,-0.652344 -0.625,-0.976563 0.52344,0.140625 1.02734,0.332031 1.53516,0.515625 0.2539,0.09375 0.52343,0.175782 0.74218,0.34375 0.23438,0.175782 0.49219,0.324219 0.77344,0.414063 0.20703,0.07813 0.4375,0.08984 0.64063,0.179687 0.53906,0.257813 1.03906,0.585938 1.54297,0.902344 -0.21875,0.519531 -0.30079,1.109375 -0.1211,1.65625 0.3125,1.035156 1.1836,1.78125 2.08594,2.320312 0.96484,0.5625 2.03906,0.933594 3.13672,1.121094 0.30859,0.09375 0.63672,0.101563 0.95703,0.152344 -0.19922,-1.125 -0.55078,-2.230469 -1.02344,-3.273438 -0.25,-0.53125 -0.53906,-1.050781 -0.92187,-1.503906 -0.45703,-0.605468 -1.10157,-1.113281 -1.86328,-1.242187 -0.42188,-0.101563 -0.85157,-0.0039 -1.26954,0.0625 -0.25,-0.09375 -0.48046,-0.222657 -0.72265,-0.332031 0.008,-0.02344 0.0234,-0.0625 0.0273,-0.08203 1.06641,-0.300781 2.03125,-0.890625 2.89063,-1.574218 -1.04688,-0.699219 -2.17188,-1.316407 -3.39453,-1.648438 -0.76563,-0.207031 -1.625,-0.289062 -2.35547,0.06641 -0.57032,0.257813 -0.94532,0.804688 -1.14844,1.375 -0.54688,-0.160156 -1.05469,-0.4375 -1.58984,-0.636718 -0.82422,-0.332032 -1.65625,-0.652344 -2.52344,-0.871094 0.0156,-0.175782 0.0391,-0.351563 0.0664,-0.527344 0.32422,-0.59375 0.90235,-0.988281 1.48829,-1.289062 1.57031,-0.769532 3.30078,-1.101563 5.00781,-1.40625 0.39844,-0.09375 0.80078,0.03516 1.20703,-0.0078 0.78516,0.02734 1.58203,0.125 2.32812,0.394531 0.30469,0.105469 0.59375,0.242188 0.89844,0.351563 -0.0703,0.695312 0.0859,1.429687 0.52344,1.988281 0.60937,0.839844 1.56641,1.347656 2.53125,1.679688 1.73828,0.585937 3.61328,0.59375 5.41406,0.339843 -0.58594,-1.183593 -1.27734,-2.320312 -2.11328,-3.351562 -0.65625,-0.777344 -1.39453,-1.511719 -2.3125,-1.972657 -0.67187,-0.339843 -1.47266,-0.472656 -2.20703,-0.277343 -0.44531,0.109375 -0.85547,0.332031 -1.22266,0.601562 -0.75781,-0.15625 -1.53125,-0.230469 -2.30078,-0.316406 0.0156,-0.02344 0.0469,-0.06641 0.0625,-0.08984 1.14844,-0.796875 1.9375,-2.019531 2.48828,-3.285156 -1.38281,-0.132813 -2.80468,-0.167969 -4.15234,0.210937 -0.68359,0.199219 -1.37109,0.550782 -1.75781,1.171876 -0.32813,0.511718 -0.36328,1.148437 -0.28516,1.738281 -0.47656,0.01172 -0.95312,0.01563 -1.42578,0.04297 0.76953,-1.238282 1.03906,-2.726563 0.98047,-4.167969 -0.0195,-0.859375 -0.15625,-1.710938 -0.34766,-2.546875 -1.05859,0.585937 -2.07422,1.253906 -2.98828,2.046875 -0.77344,0.691406 -1.50391,1.46875 -1.92578,2.425781 -0.26563,0.609375 -0.37109,1.300781 -0.20313,1.949219 0.13282,0.542969 0.4375,1.023437 0.78907,1.453125 -0.51563,0.308594 -0.9961,0.683594 -1.38672,1.148437 -0.32813,0.402344 -0.78516,0.675781 -1.26953,0.847657 -0.62891,0.210937 -1.3086,0.136718 -1.94141,0.0039 -1.46484,-0.355469 -2.89844,-0.835938 -4.33203,-1.292969 -0.94922,-0.324219 -1.91016,-0.613281 -2.82813,-1.015625 -0.54296,-0.285156 -0.96484,-0.753906 -1.42578,-1.148438 -1.05078,-0.964843 -2.09375,-1.933593 -3.20312,-2.824218 -0.69922,-0.558594 -1.41406,-1.105469 -2.19531,-1.539063 -0.65625,-0.382812 -1.35547,-0.722656 -2.11719,-0.828125 -2.49219,-0.355468 -5.01563,-0.136718 -7.51953,-0.300781 -0.55078,-0.07422 -1.10547,-0.05469 -1.65625,-0.121094 -0.51172,-0.05078 -1.02344,-0.08984 -1.53125,-0.148437 -1.12891,-0.05078 -2.2461,-0.203125 -3.36719,-0.328125 -0.60938,-0.128907 -1.23438,-0.148438 -1.83203,-0.3125 -0.96875,-0.21875 -1.92188,-0.667969 -2.5625,-1.441407 -0.33203,-0.394531 -0.47656,-0.894531 -0.73828,-1.328124 -0.96485,-1.714844 -2.00391,-3.386719 -3.14453,-4.988282 -0.92969,-1.269531 -2.07032,-2.367187 -3.2461,-3.40625 -1.57812,-1.382812 -3.25781,-2.640625 -4.97265,-3.84375 -1.96094,-1.375 -3.97657,-2.664062 -6.03516,-3.886718 0.80078,-0.535157 1.75,-0.789063 2.68359,-0.996094 2.25,-0.4375 4.55469,-0.464844 6.83594,-0.414063 1.00781,0.042969 2.01953,0.078125 3.02735,0.171875 1.20703,0.089844 2.42187,0.183594 3.62109,0.371094 0.55469,0.082031 1.11328,0.136719 1.64453,0.332031 1.60937,0.539063 3.12891,1.300781 4.63672,2.074219 1.07812,0.585938 2.17969,1.136719 3.26172,1.714844 -0.67188,0.332031 -1.30469,0.777344 -1.71875,1.410156 -0.71094,1.058594 -0.84375,2.402344 -0.65235,3.636719 0.32813,2.140625 1.44141,4.074219 2.76953,5.753906 0.14063,0.171875 0.26563,0.359375 0.44141,0.5 0.46875,-0.636719 0.84766,-1.332031 1.21875,-2.027344 0.80469,-1.566406 1.48047,-3.246093 1.58984,-5.023437 0.0156,-0.46875 -0.008,-0.949219 -0.11328,-1.410156 -0.0586,-0.269532 -0.16406,-0.523438 -0.23047,-0.792969 1.125,0.710937 2.16016,1.5625 3.19532,2.398437 -0.34375,0.195313 -0.74219,0.289063 -1.04688,0.546875 -0.6914,0.472657 -1.14062,1.246094 -1.28906,2.058594 -0.19922,0.941406 -0.0703,1.917969 0.19531,2.832031 0.44922,1.484375 1.26953,2.835938 2.25,4.03125 0.88281,-1.261718 1.64844,-2.625 2.12891,-4.097656 0.30859,-0.925781 0.4375,-1.914062 0.29687,-2.882812 0.20313,0.160156 0.35938,0.367187 0.53125,0.5625 0.41797,0.453124 0.80469,0.933593 1.16016,1.441406 0.48437,0.636718 0.92187,1.308594 1.32031,2.003906 0.1211,0.222656 0.28906,0.4375 0.32031,0.699219 -0.59375,0.589843 -0.78906,1.496093 -0.62109,2.300781 0.22266,1.113281 0.92188,2.074219 1.73047,2.847656 1.14453,1.09375 2.54687,1.902344 4.02344,2.464844 0.0156,0.01953 0.0508,0.05469 0.0703,0.07031 0.14453,-1.496093 0.0937,-3.019531 -0.20313,-4.496093 -0.24218,-1.113281 -0.66796,-2.261719 -1.5625,-3.019531 -0.69531,-0.597657 -1.66015,-0.773438 -2.55078,-0.65625 -0.27734,-0.644532 -0.69531,-1.207032 -1.04687,-1.808594 0.61719,0.109375 1.25,0.207031 1.8789,0.140625 1.29688,-0.109375 2.53516,-0.601563 3.64454,-1.265625 1.59765,-0.972656 2.97265,-2.28125 4.11718,-3.753906 -1.53125,-0.597657 -3.12109,-1.035157 -4.74218,-1.308594 -1.46875,-0.210938 -2.9961,-0.316406 -4.4375,0.09766 -0.92579,0.261719 -1.79297,0.804688 -2.33204,1.613281 -0.32421,0.476563 -0.51953,1.023438 -0.65234,1.578125 -0.36719,-0.308594 -0.69141,-0.664062 -1.04297,-0.988281 -0.53906,-0.5 -1.08984,-0.988281 -1.64453,-1.46875 0.004,-0.02344 0.004,-0.07422 0.004,-0.09766 0.71093,-0.06641 1.35937,-0.425781 1.91406,-0.855469 0.97266,-0.808594 1.6875,-1.894531 2.17187,-3.058594 -0.78125,-0.101562 -1.57031,-0.121094 -2.35546,-0.08203 -0.81641,0.05078 -1.64454,0.167969 -2.39454,0.507813 -0.52343,0.246093 -1.01953,0.625 -1.26171,1.164062 -0.0977,0.203125 -0.14844,0.421875 -0.19532,0.636719 -0.49609,-0.304688 -0.92578,-0.707031 -1.40234,-1.042969 -2.28516,-1.738281 -4.64844,-3.371094 -7.05078,-4.941406 -0.70703,-0.453125 -1.41016,-0.90625 -2.13281,-1.339844 0.0156,-0.027344 0.0391,-0.089844 0.0508,-0.117188 1.67968,-1.203124 3.57812,-2.140624 5.61328,-2.558593 -0.14844,0.433593 -0.27735,0.886719 -0.2461,1.347656 0.0312,1.019531 0.57813,1.957031 1.31641,2.636719 1.17578,1.089844 2.71875,1.695312 4.26953,2.035156 0.71485,0.164062 1.44531,0.238281 2.17578,0.300781 -0.29687,-1.191406 -0.70312,-2.359375 -1.23437,-3.46875 -0.45703,-0.9375 -1.00781,-1.847656 -1.76563,-2.570312 -0.21484,-0.207031 -0.46875,-0.363281 -0.67187,-0.582031 0.46875,0.00781 0.9414,0.027343 1.39844,0.136718 1.44921,0.183594 2.85156,0.640625 4.1914,1.207032 0.0117,0.683593 0.15625,1.390624 0.59375,1.933593 0.66406,0.917969 1.71875,1.449219 2.77344,1.773438 1.94922,0.585937 4.02734,0.5 6.00781,0.125 -0.54297,-0.953125 -1.125,-1.886719 -1.82422,-2.730469 -0.72265,-0.929688 -1.55468,-1.785156 -2.54687,-2.417969 -0.66797,-0.402343 -1.42969,-0.722656 -2.22266,-0.691406 -0.96875,0.015625 -1.88281,0.511719 -2.53125,1.207031 -0.78515,-0.273437 -1.55078,-0.617187 -2.35547,-0.824218 0.0273,-0.039063 0.0547,-0.078126 0.0859,-0.121094 0.84375,-0.4375 1.50781,-1.140625 2.08984,-1.875 0.58204,-0.769532 1.07032,-1.617188 1.41016,-2.519532 -1.51562,-0.121093 -3.06641,-0.164062 -4.55859,0.183594 -0.55469,0.136719 -1.10157,0.324219 -1.58594,0.628906 -0.62891,0.375 -1.10156,1.019532 -1.22656,1.746094 -0.0859,0.433594 -0.0156,0.875 0.0273,1.3125 -1.16797,-0.042968 -2.33984,-0.015625 -3.49609,0.152344 0.69922,-1.464844 0.63281,-3.164062 0.26953,-4.7109375 -0.94531,0.5195315 -1.83594,1.1406255 -2.61328,1.8828125 -0.6211,0.613281 -1.19141,1.359375 -1.29297,2.25 -0.0586,0.460937 0.0937,0.910156 0.28125,1.324219 -1.44922,0.441406 -2.85156,1.039062 -4.1875,1.753906 -0.63281,0.351562 -1.27735,0.699219 -1.84375,1.148438 -1.00391,-0.21875 -2.00781,-0.4375 -3.03125,-0.527344 -2.40234,-0.304688 -4.83203,-0.28125 -7.24609,-0.128906 -2.27344,0.148437 -4.54297,0.441406 -6.78516,0.84375 -0.82422,0.164062 -1.66016,0.28125 -2.46484,0.523437 -0.26172,-0.023437 -0.45704,-0.214844 -0.67969,-0.332031 -1.0586,-0.585938 -2.19531,-1.011719 -3.32031,-1.441406 C 102.26563,6.292969 99.5625,5.464844 96.855469,4.65625 94.203125,3.875 91.539062,3.132812 88.867188,2.429688 87.289062,2.027344 85.71875,1.574219 84.097656,1.390625 83.285156,1.226562 82.453125,1.183594 81.632812,1.082031 80.933594,0.984375 80.230469,0.996094 79.53125,0.90625 77.109375,0.738281 74.679688,0.660156 72.25,0.625 c 0.332031,-0.335938 0.726562,-0.5976562 1.082031,-0.90625 0.414063,-0.320312 0.785157,-0.691406 1.191407,-1.015625 0.390624,0.5625 1.0625,0.871094 1.742187,0.878906 1.195313,0.019531 2.324219,-0.535156 3.261719,-1.238281 0.05469,-0.050781 0.246094,-0.152344 0.105468,-0.222656 -0.917968,-0.589844 -1.925781,-1.085938 -3.007812,-1.269532 0.214844,-0.175781 0.410156,-0.371093 0.613281,-0.554687 0.01172,-0.03125 0.02734,-0.089844 0.03516,-0.117187 0.585937,0.058593 1.195312,-0.015626 1.714843,-0.304688 0.9375,-0.523438 1.636719,-1.386719 2.125,-2.328125 0.4375,-0.847656 0.757813,-1.761719 0.910157,-2.703125 -1.261719,0.128906 -2.53125,0.328125 -3.71875,0.796875 -0.496094,0.199219 -0.980469,0.441406 -1.390626,0.785156 C 76.5,-7.25 76.15625,-6.8125 76.019531,-6.300781 75.828125,-5.671875 75.988281,-5 76.230469,-4.410156 c 0.04687,0.042968 0.09766,0.085937 0.144531,0.125 -0.01563,0.039062 -0.04297,0.113281 -0.05859,0.152344 -0.386718,0.316406 -0.726562,0.6875 -1.105468,1.015624 -0.53125,0.492188 -1.082032,0.964844 -1.632813,1.4375 -0.01953,0.00781 -0.05469,0.019532 -0.07422,0.023438 0.05859,-1.058594 -0.445312,-2.058594 -1.0625,-2.890625 -0.1875,-0.265625 -0.414062,-0.507813 -0.640625,-0.742187 -0.421875,0.75 -0.789062,1.539062 -0.992187,2.375 -0.125,0.589843 -0.191406,1.226562 0.03125,1.804687 0.144531,0.375 0.433594,0.679687 0.785156,0.871094 -0.01172,0.035156 -0.02734,0.109375 -0.03906,0.1484372 C 70.28125,0.890625 68.921875,1.804688 67.476562,2.566406 66.804688,2.882812 66.160156,3.261719 65.460938,3.519531 62.988281,4.46875 60.351562,4.882812 57.734375,5.226562 c -1.578125,0.179688 -3.164063,0.320313 -4.75,0.410157 -0.105469,0.00391 -0.210937,-0.00781 -0.3125,-0.023438 0.195313,-0.148437 0.417969,-0.257812 0.636719,-0.375 C 52.324219,4.375 51.203125,3.5625 49.886719,3.339844 c 0.992187,-0.957032 2,-1.898438 2.972656,-2.871094 0.351563,0.222656 0.789063,0.203125 1.183594,0.140625 0.785156,-0.136719 1.410156,-0.746094 1.742187,-1.445313 0.488282,-1.03125 0.566406,-2.214843 0.445313,-3.339843 C 56.152344,-4.890625 56,-5.597656 55.765625,-6.28125 c -0.01953,-0.085938 -0.113281,0.00781 -0.152344,0.023438 -1.082031,0.742187 -2.128906,1.578124 -2.921875,2.632812 -0.566406,0.746094 -0.980468,1.691406 -0.773437,2.640625 0.105469,0.347656 0.265625,0.675781 0.511719,0.9453125 -0.0039,0.0234375 -0.01172,0.0625 -0.01563,0.0820313 -0.421874,0.3632812 -0.796874,0.7812502 -1.246093,1.1093752 0.128906,-1.0859378 -0.371094,-2.125 -0.992188,-2.984375 -0.203125,-0.292969 -0.445312,-0.554688 -0.691406,-0.8125 -0.382813,0.675781 -0.722656,1.382812 -0.929687,2.132812 -0.171876,0.632813 -0.273438,1.320313 -0.06641,1.953125 0.152344,0.472656 0.523438,0.847656 0.980469,1.039063 -0.0039,0.023437 -0.01563,0.070312 -0.01953,0.09375 -0.929688,0.667969 -1.886719,1.304687 -2.890625,1.859375 -1.019532,0.546875 -2.0625,1.082031 -3.1875,1.367187 C 43.125,5.863281 42.882812,5.921875 42.636719,5.980469 39.984375,6.503906 37.25,6.433594 34.578125,6.101562 31.28125,5.75 28.042969,4.972656 24.859375,4.054688 21.980469,3.207031 19.144531,2.199219 16.375,1.035156 14.542969,0.242188 12.707031,-0.574219 11.023438,-1.660156 10.644531,-1.914062 10.28125,-2.203125 10.03125,-2.589844 9.671875,-3.121094 9.484375,-3.742188 9.363281,-4.363281 9.128906,-5.894531 9.292969,-7.460938 9.621094,-8.964844 c 0.320312,-1.480468 0.792968,-2.929687 1.457031,-4.292968 1.109375,-2.453126 2.226563,-4.898438 3.335937,-7.351563 2.902344,-6.417969 5.683594,-12.890625 8.519532,-19.339844 1.421875,-3.238281 2.847656,-6.480469 4.269531,-9.71875 0.714844,-1.621093 1.425781,-3.242187 2.136719,-4.863281 0.167968,-0.378906 0.394531,-0.769531 0.515625,-1.167969 0.160156,-0.53125 -0.117188,-0.445312 -0.621094,-0.539062 -0.867187,-0.160157 -1.734375,-0.316407 -2.601563,-0.464844 -4.867187,-0.832031 -9.777343,-1.359375 -14.667968,-1.976563 -0.777344,-0.09766 -1.496094,-0.05078 -1.847656,0.738282 -0.144532,0.3125 -0.1875,0.660156 -0.226563,1.003906 -0.203125,1.679688 -0.285156,3.429688 -0.617187,5.085938 -0.320313,1.605468 -0.226563,3.265624 -0.441407,4.894531 -0.152343,1.667969 -0.402343,3.300781 -0.535156,4.972656 -0.554687,6.957031 -1.457031,13.894531 -2.457031,20.800781 -0.3125,2.175782 -0.53125,4.375 -1.132813,6.496094 -0.371093,1.324219 -0.792969,2.636719 -1.265625,3.929688 C 2.992188,-9.527344 2.921875,-8.378906 2.863281,-7.0625 2.75,-4.652344 2.835938,-2.234375 3.253906,0.144531 3.539062,1.761719 5.011719,2.75 6.171875,3.816406 5.589844,5.992188 4.929688,8.148438 4.332031,10.324219 4.308594,10.320312 4.265625,10.308594 4.246094,10.304688 4.269531,10.136719 2.765625,11.785156 2.492188,14.050781 2.308594,15.015625 2.253906,15.996094 2.105469,16.964844 2.03125,17.347656 1.960938,17.734375 1.957031,18.125 c 0.085938,0.636719 0.195313,1.269531 0.238281,1.910156 0.03125,0.300782 0.015626,0.609375 0.066407,0.910156 0.027343,0.59375 -0.03125,1.183594 -0.078125,1.773438 0.035156,0.394531 -0.109375,0.765625 -0.140625,1.152344 -0.085938,0.804687 -0.222657,1.605468 -0.410157,2.390625 -0.171874,0.953125 -0.390624,1.898437 -0.628906,2.835937 -0.25,0.09375 -0.503906,0.179688 -0.738281,0.304688 -0.0625,0.632812 -0.2109375,1.25 -0.2773438,1.882812 0.4179688,-0.21875 0.8554688,-0.398437 1.2968748,-0.5625 -0.050781,0.621094 0.050782,1.238282 0.136719,1.851563 0.378906,2.441406 1.101563,4.828125 2.152344,7.066406 0.507812,1.113281 1.078125,2.203125 1.65625,3.28125 0.296875,0.601563 0.652343,1.191406 0.742187,1.867187 C 5.3125,44.570312 4.574219,44.542969 3.925781,44.808592 2.945312,45.183592 2.234375,46.035154 1.765625,46.94531 1.300781,47.871094 1.023438,48.886719 0.929688,49.917969 0.878906,50.378906 0.820312,50.839844 0.84375,51.300781 2.429688,50.835938 4.011719,50.234375 5.328125,49.21875 5.800781,48.867188 6.160156,48.398438 6.511719,47.9375 6.59375,48.71875 6.714844,49.496094 6.828125,50.273438 6.230469,50.0625 5.546875,50.226562 5.0625,50.617188 4.417969,51.085938 3.992188,51.792969 3.691406,52.519531 3.410156,53.214844 3.25,53.953125 3.175781,54.695312 4.222656,54.480469 5.277344,54.222656 6.222656,53.703125 6.507812,53.558594 6.742188,53.335938 7.019531,53.171875 7.003906,53.273438 6.988281,53.371094 6.972656,53.46875 6.496094,54.265625 5.714844,54.816406 5.210938,55.59375 4.851562,56.097656 4.53125,56.628906 4.214844,57.15625 3.65625,58.046875 3.429688,59.089844 3.238281,60.109375 3.1875,60.753906 3,61.378906 2.992188,62.027344 3,62.425781 2.929688,62.820312 2.902344,63.21875 c -0.066406,1.273438 -0.085938,2.546875 -0.066406,3.824219 0.460937,0.04687 0.925781,0.03125 1.386718,0.02734 C 4.101562,66.695312 4.070312,66.300781 4.042969,65.910156 3.988281,64.96875 4.003906,64.027344 4.0625,63.085938 c -0.00391,-0.59375 0.078125,-1.1875 0.144531,-1.777344 0.320313,-1.453125 1.214844,-2.726563 2.328125,-3.695313 0.429688,-0.34375 0.839844,-0.726562 1.347656,-0.949219 0.011719,0.5 0.140626,0.988282 0.25,1.476563 0.6875,2.71875 1.644532,5.363281 2.605469,7.996094 0.152344,-0.667969 0.335938,-1.332031 0.464844,-2.003907 C 10.5,62.660156 10.054688,61.074219 9.757812,59.472656 9.648438,58.839844 9.53125,58.203125 9.46875,57.5625 c 1.113281,0.773438 2.515625,0.925781 3.835938,0.824219 C 12.972656,57.5625 12.519531,56.785156 11.953125,56.097656 11.472656,55.535156 10.839844,54.992188 10.0625,54.96875 9.773438,54.933594 9.5,55.039062 9.230469,55.117188 c -0.121094,-2.0625 -0.132813,-4.128907 -0.011719,-6.1875 0.234375,0.34375 0.390625,0.730468 0.597656,1.089843 1.570313,2.84375 3.414063,5.523438 5.355469,8.121094 1.425781,2.035156 2.617187,4.21875 3.746094,6.425781 1.644531,3.265625 3.128906,6.617188 4.503906,10.007813 M 171.01953,60.535156 c -0.34375,-1.242187 -0.71484,-2.476562 -1.03125,-3.722656 -0.27734,-1.125 -0.58203,-2.25 -0.76953,-3.394531 0.30078,0.214843 0.58203,0.457031 0.91406,0.625 1.20313,0.648437 2.60156,0.804687 3.94922,0.78125 -0.33594,-0.972657 -0.76172,-1.914063 -1.31641,-2.78125 -0.16796,-0.273438 -0.40625,-0.507813 -0.54296,-0.804688 0.0742,0.04297 0.15234,0.08594 0.23046,0.128907 1.02735,0.714843 2.03516,1.457031 3.08204,2.144531 -0.28907,0.246093 -0.60938,0.472656 -0.80079,0.804687 -0.40625,0.605469 -0.44531,1.386719 -0.26562,2.074219 0.28125,1.09375 0.95312,2.042969 1.72656,2.84375 0.0273,0.0078 0.0742,0.02344 0.10156,0.03125 0.0234,0.07422 0.0508,0.144531 0.0781,0.214844 -0.89063,-0.355469 -1.87891,-0.5625 -2.83594,-0.378907 -0.95312,0.175782 -1.79297,0.75 -2.40234,1.484376 -0.0273,-0.01172 -0.0898,-0.03906 -0.11719,-0.05078 M 27.238281,40.949219 C 26.746094,40.671875 26.167969,40.5 25.597656,40.578125 c 0.09375,-0.554687 0.171875,-1.128906 0.02344,-1.683594 -0.148438,-0.675781 -0.652344,-1.21875 -1.238282,-1.5625 -0.07812,-0.3125 -0.203124,-0.613281 -0.304687,-0.921875 0.945313,0.421875 2.003906,0.472656 3.019531,0.335938 -0.332031,-0.738282 -0.792968,-1.421875 -1.339844,-2.023438 -0.421874,-0.433594 -0.949218,-0.839844 -1.582031,-0.863281 -0.351562,-0.05078 -0.679687,0.105469 -0.984375,0.25 -0.5,-1.359375 -1.046875,-2.699219 -1.574218,-4.050781 -0.136719,-0.359375 -0.3125,-0.710938 -0.40625,-1.085938 0.828124,0.449219 1.625,0.953125 2.433593,1.433594 0.0078,-0.25 0.03516,-0.503906 -0.02344,-0.746094 -0.08984,-0.195312 -0.234375,-0.359375 -0.359375,-0.539062 1.128906,-0.125 2.195312,-0.558594 3.171875,-1.125 -0.347656,-0.308594 -0.710938,-0.59375 -1.085938,-0.859375 -0.835937,-0.578125 -1.734375,-1.101563 -2.738281,-1.308594 -0.597656,-0.117187 -1.261719,-0.07813 -1.773437,0.273437 -0.214844,0.136719 -0.378907,0.335938 -0.566407,0.507813 -0.433593,-0.25 -0.8125,-0.582031 -1.230469,-0.855469 -1.144531,-0.792968 -2.296874,-1.570312 -3.46875,-2.324218 0,-0.01953 -0.0039,-0.0625 -0.0039,-0.08203 0.71875,0.0078 1.382813,-0.390625 1.851563,-0.914062 0.675781,-0.753906 1.089843,-1.722656 1.292969,-2.707032 -1.058594,0.05078 -2.128907,0.242188 -3.089844,0.695313 -0.53125,0.269531 -1.0625,0.675781 -1.226563,1.277344 -0.105469,0.292969 -0.04687,0.609375 -0.03516,0.914062 -0.328125,-0.160156 -0.628906,-0.375 -0.941406,-0.566406 C 12.765625,21.625 12.097656,21.21875 11.4375,20.808594 11.238281,20.679688 11.007812,20.582031 10.878906,20.375 c 2.019532,-0.546875 3.695313,-1.925781 5.042969,-3.480469 -1.050781,-0.460937 -2.148437,-0.8125 -3.265625,-1.0625 -1.191406,-0.257812 -2.4375,-0.40625 -3.636719,-0.152343 -0.40625,0.07812 -0.78125,0.257812 -1.152343,0.429687 -0.101563,-0.457031 -0.21875,-0.910156 -0.351563,-1.363281 0.609375,0.300781 1.300781,0.394531 1.972656,0.335937 1.167969,-0.09766 2.28125,-0.539062 3.277344,-1.136719 C 12.066406,13.328125 11.304688,12.777344 10.476562,12.347656 9.757812,11.984375 8.964844,11.667969 8.144531,11.734375 7.667969,11.753906 7.234375,11.976562 6.867188,12.269531 6.707031,11.558594 6.511719,10.855469 6.332031,10.152344 6.289062,10.027344 6.320312,9.898438 6.363281,9.777344 6.722656,8.734375 7.066406,7.683594 7.417969,6.640625 7.601562,6.050781 7.835938,5.480469 7.984375,4.882812 c 0.96875,0.9375 2.066406,1.726563 3.152344,2.515626 2.222656,1.589843 4.492187,3.117187 6.832031,4.53125 0.457031,0.300781 0.863281,0.679687 1.261719,1.054687 1.179687,1.128906 2.222656,2.386719 3.285156,3.625 0.871094,1.09375 1.773437,2.167969 2.605469,3.292969 1.066406,1.269531 1.882812,2.722656 2.628906,4.195312 0.824219,1.660156 1.570312,3.363282 2.214844,5.101563 -0.816406,1.25 -1.308594,2.683593 -1.582032,4.140625 -0.265624,1.3125 -0.371093,2.652344 -0.402343,3.988281 0.04687,0.585937 -0.203125,1.136719 -0.21875,1.714844 -0.02344,0.542969 0.04687,1.085937 0.230469,1.597656 0.128906,0.328125 0.113281,0.679687 0.144531,1.023437 -0.292969,-0.246093 -0.558594,-0.527343 -0.898438,-0.714843 M 168.75391,50.46875 c -0.0664,-0.582031 -0.0937,-1.167969 -0.0117,-1.75 0.66015,0.484375 1.35156,0.933594 1.98828,1.453125 -0.35156,-0.05078 -0.71094,-0.128906 -1.0625,-0.05469 -0.32813,0.05469 -0.625,0.207031 -0.91406,0.351562 M 5.429688,17.1875 C 5.21875,16.304688 5.078125,15.410156 4.945312,14.511719 c -0.023437,-0.152344 0,-0.308594 0.046876,-0.457031 0.203124,-0.667969 0.417968,-1.335938 0.617187,-2.003907 0.191406,0.355469 0.300781,0.742188 0.449219,1.113281 C 6.484375,14.296875 6.90625,15.429688 7.332031,16.5625 6.984375,16.917969 6.734375,17.359375 6.589844,17.832031 6.179688,17.664062 5.824219,17.386719 5.429688,17.1875 M 24.949219,14.011719 C 22,11.480469 19.054688,8.941406 16.0625,6.460938 15.1875,5.578125 14.316406,4.597656 13.984375,3.371094 c 0,-0.0625 -0.0039,-0.191406 -0.0039,-0.253906 2.796875,0.800781 5.601562,1.5625 8.40625,2.316406 2.773437,0.75 5.550781,1.476562 8.300781,2.292968 0.746094,0.242188 1.511719,0.449219 2.222656,0.78125 0.0039,0.027344 0.0039,0.082032 0.0078,0.109376 -0.835938,0.097656 -1.632813,0.511718 -2.15625,1.175781 -0.960938,1.164062 -1.199219,2.738281 -1.167969,4.203125 -1.355469,0.08984 -2.707031,0.222656 -4.0625,0.339844 -0.253906,0.05469 -0.40625,-0.1875 -0.582031,-0.324219 m 9.265625,-0.371094 c 0.558594,-0.828125 1,-1.820313 0.851562,-2.84375 0.02344,0.01172 0.07031,0.03516 0.09375,0.04687 0.414063,0.644531 0.832032,1.289062 1.199219,1.960938 0.113281,0.214843 0.277344,0.414062 0.300781,0.660156 -0.808594,0.109375 -1.628906,0.121094 -2.445312,0.175781 m 3.429687,-0.226563 c -0.08203,-0.347656 -0.246093,-0.667968 -0.363281,-1.003906 0.375,0.117188 0.765625,0.175782 1.160156,0.160156 1.027344,-0.03125 2.011719,-0.410156 2.898438,-0.910156 -0.667969,-0.609375 -1.410156,-1.148437 -2.230469,-1.53125 C 38.519531,9.855469 37.84375,9.660156 37.195312,9.804688 36.785156,9.890625 36.449219,10.167969 36.1875,10.484375 35.703125,9.808594 35.273438,9.09375 34.753906,8.441406 c -0.0078,-0.050781 -0.01563,-0.101562 -0.01953,-0.15625 0.726563,0.183594 1.476563,0.21875 2.222656,0.246094 2.292969,0.082031 4.585938,-0.125 6.878907,-0.140625 0.597656,0.027344 1.238281,-0.042969 1.777343,0.261719 0.09766,0.496094 0.375,0.929687 0.621094,1.359375 0.660156,1.089843 1.410156,2.121093 2.152344,3.15625 -0.230469,0.04297 -0.464844,0.01172 -0.695313,0.0039 -2.847656,-0.04687 -5.695312,0.03906 -8.539062,0.195313 -0.503906,-0.0039 -1.003906,0.07422 -1.507813,0.04687 m 9.378907,-7.6875 C 47.148438,5.636719 47.277344,5.550781 47.40625,5.472656 47.636719,5.3125 47.851562,5.132812 48.070312,4.957031 48.214844,5.265625 48.453125,5.511719 48.6875,5.75 48.136719,5.808594 47.574219,5.785156 47.023438,5.726562 m 19.4375,-0.890624 c 0.01172,-0.03125 0.03516,-0.09375 0.04297,-0.128907 0.140625,-0.078125 0.277344,-0.15625 0.417969,-0.230469 -0.02734,0.152344 -0.05469,0.300782 -0.08594,0.453126 -0.125,-0.027344 -0.25,-0.058594 -0.374999,-0.09375 z m 0,0"
             id="path152" />
        </g>
      </g>
    </g>
  </g>
</svg>
